<svg width="75" height="72" viewBox="0 0 75 72" fill="none" xmlns="http://www.w3.org/2000/svg">
    <path d="M47.2698 71.71C38.2698 71.79 16.9198 71.98 12.1398 71.42C8.25981 70.96 1.13981 68.42 1.02981 58.61C0.999813 53 0.659813 30 1.45981 25C3.12981 14.4 5.99981 7.77 18.0498 2.33C28.3098 -2.11 50.2198 1.55 52.5898 19.26C53.0398 22.63 53.8398 23 55.0798 23.26C74.6898 27.39 79.0798 49.52 69.6798 61.58C63.7298 69.26 57.3098 70.76 47.2698 71.71ZM43.7098 25.25C44.3898 13.73 32.7098 5.43 20.8898 11.59C12.4698 15.98 11.7398 22.35 11.2098 29.59C10.5398 38.79 10.9598 45.5 11.1198 54.72C11.1898 58.85 12.3898 61.36 16.8198 61.72C17.9598 61.82 33.8198 61.72 42.0398 61.78C52.7798 61.84 66.0998 56.89 63.9698 43.78C63.4748 41.1564 62.1643 38.756 60.225 36.9208C58.2858 35.0857 55.8167 33.9096 53.1698 33.56C52.7434 33.4806 52.3028 33.5339 51.9077 33.7127C51.5125 33.8915 51.1816 34.1872 50.9598 34.56C43.9998 49 28.6598 48.31 22.4098 40.46C16.7998 33.4 19.7098 21.73 27.0898 19.26C29.8698 18.32 32.1998 19.15 33.3398 21.12C35.1798 24.3 33.4498 27.18 30.8498 28.77C28.2498 30.36 28.3998 32.69 29.4898 34.23C32.0498 37.82 37.0898 37.11 40.2798 33.95C42.8698 31.4 43.5198 28.47 43.7098 25.25Z" fill="#fff"/>
</svg>
