<svg width="191" height="156" viewBox="0 0 191 156" fill="none" xmlns="http://www.w3.org/2000/svg">
    <path
        d="M117.56 88.5819C117.56 88.5819 111.584 83.1164 109.202 78.1822C107.425 74.5335 105.1 70.2052 100.923 68.3147C100.574 64.7648 100.536 61.191 100.809 57.6344C101.015 53.9221 100.103 48.4804 98.8193 47.6347C97.9776 47.1392 97.0751 46.7577 96.1328 46.5004C96.7935 48.464 97.3119 50.4729 97.683 52.5112L87.0365 52.7947C86.6974 50.7575 86.1852 48.7529 85.5052 46.8028C84.56 47.0297 83.7849 47.2008 83.0854 47.4078C83.1043 47.5212 87.1122 62.3219 83.2555 60.1677C84.0117 63.5129 85.3162 68.9953 86.0535 70.1296C82.8396 90.942 78.8706 133.058 78.1144 140.449C82.4059 142.291 87.1907 142.644 91.7061 141.451C91.7061 141.451 97.301 98.4085 98.1736 88.5789L112.181 100.431C113.371 101.45 114.772 102.193 116.283 102.605L136.736 108.257C133.019 107.163 136.149 93.9599 140.441 94.2116L117.56 88.5819Z"
        fill="#357CE6" fill-opacity="0.2" />
    <path
        d="M24.062 78.0498V82.4925C24.063 83.3193 24.3919 84.1114 24.9765 84.6964C25.561 85.2805 26.3536 85.6098 27.1803 85.6108H31.6578C31.6687 84.6118 31.4794 83.6208 31.1011 82.6965C30.7227 81.7721 30.1631 80.9323 29.4551 80.2279C28.7471 79.5234 27.9052 78.9672 26.9789 78.5931C26.0526 78.219 25.0608 78.0343 24.062 78.0498Z"
        fill="#357CE6" fill-opacity="0.2" />
    <path
        d="M54.1329 33.3813C53.116 32.0615 51.7144 31.09 50.1217 30.6009C48.529 30.1118 46.8238 30.1293 45.2416 30.651C45.3655 30.0349 45.3596 29.3996 45.2241 28.7859C45.0885 28.1722 44.8265 27.5935 44.4545 27.0869C43.7585 26.2285 42.7543 25.6766 41.6566 25.5491C40.5589 25.4216 39.4549 25.7285 38.5806 26.4044C37.7064 27.0803 37.1313 28.0716 36.9783 29.166C36.8254 30.2604 37.1066 31.3712 37.7622 32.2609C38.1526 32.7527 38.643 33.156 39.201 33.4443C39.759 33.7324 40.3717 33.8988 40.9989 33.9325C40.0978 35.3305 39.6523 36.9733 39.7235 38.635C39.7948 40.2965 40.3794 41.8952 41.3969 43.2109C42.1642 44.0978 43.0718 44.8531 44.0834 45.4467C45.2555 43.2577 45.5431 40.793 45.3689 40.5881C44.151 39.1632 45.4256 37.8289 46.2386 39.4548C46.6545 40.2866 47.1649 38.8309 47.4107 37.7722C48.6484 38.3256 49.9715 38.6644 51.323 38.7742C51.1907 44.0477 49.7539 46.6188 47.5808 44.4069C47.5376 45.0815 47.5566 45.7586 47.6375 46.4297C49.4507 46.3139 51.1965 45.6982 52.6812 44.6506C54.3671 43.3481 55.4671 41.4294 55.7393 39.3164C56.0114 37.2033 55.4337 35.0686 54.1329 33.3813Z"
        fill="#357CE6" />
    <path
        d="M47.5589 44.4019C47.2089 44.0272 46.8926 43.6223 46.6137 43.192C46.5272 43.7686 46.5724 44.3572 46.7459 44.9138C46.9194 45.4704 47.2167 45.9806 47.6156 46.4058C47.5368 45.7409 47.5178 45.0703 47.5589 44.4019Z"
        fill="#357CE6" />
    <path
        d="M36.7652 61.4532C35.7822 61.933 34.7722 62.3556 33.7404 62.7189L36.1234 58.5986C36.2548 59.5668 36.4695 60.5219 36.7652 61.4532Z"
        fill="#357CE6" />
    <path
        d="M88.2196 42.0577C88.1629 42.6059 88.1629 43.3432 88.144 44.0616C87.0097 44.175 85.3271 44.2318 84.9679 43.8158L84.7978 43.589C85.3082 44.4019 86.7828 43.381 88.2196 42.0577Z"
        fill="#357CE6" />
    <path
        d="M72.019 58.9578C71.5086 59.6762 70.9792 60.4503 70.4131 61.2831V56.5757C70.876 57.4162 71.4134 58.2134 72.019 58.9578Z"
        fill="#357CE6" />
    <path
        d="M98.1815 88.56L100.639 90.6395L100.904 81.8686C100.753 83.8337 98.1815 88.5789 98.1815 88.56Z"
        fill="#357CE6" />
    <path
        d="M147.482 96.915C143.746 96.716 140.11 118.165 144.759 119.561C149.201 119.807 152.32 97.1797 147.482 96.915Z"
        fill="#357CE6" />
    <path
        d="M138.785 106.858C137.637 106.294 136.414 105.899 135.154 105.684C135.57 108.425 137.273 109.146 139.126 107.161C139.012 107.066 138.918 106.971 138.785 106.858Z"
        fill="#357CE6" />
    <path
        d="M140.657 94.2305C140.27 94.1768 139.876 94.2196 139.51 94.3549C139.145 94.4902 138.817 94.7141 138.559 95.0066C139.598 95.3051 140.808 95.6106 141.999 95.8752C141.927 95.5131 141.766 95.1728 141.532 94.8862C141.298 94.5996 140.997 94.3748 140.657 94.2305Z"
        fill="#357CE6" />
    <path
        d="M93.4553 32.1335C93.8145 31.3017 92.322 30.7535 91.3956 32.039C91.7737 31.2828 90.1857 30.6779 89.3539 32.1524C89.5997 31.4341 88.1599 30.8291 87.2554 32.4738C87.3549 31.6231 85.9132 31.642 85.554 33.1544C85.3271 34.0997 85.156 35.1205 85.0247 35.8767C85.4969 36.1276 85.9904 36.3363 86.4993 36.5006C86.3102 38.4289 86.9908 38.5423 87.3689 37.8618C88.0873 36.5951 89.524 37.616 88.1251 39.5632C88.2176 39.6627 92.1877 43.8676 92.2832 43.9671C89.9022 41.1691 93.7389 35.234 94.9866 33.1922C96.0224 31.4908 94.4005 30.8858 93.4553 32.1335Z"
        fill="#357CE6" />
    <path
        d="M14.0055 94.5151L6.65148 101.868C5.86543 102.654 7.07435 103.873 7.84548 103.062L15.1995 95.7081C15.3577 95.5499 15.4466 95.335 15.4465 95.1111C15.4464 94.8872 15.3573 94.6723 15.199 94.5141C15.0407 94.3559 14.826 94.2673 14.6021 94.2673C14.3784 94.2673 14.1637 94.3569 14.0055 94.5151Z"
        fill="#357CE6" />
    <path
        d="M151.564 58.901C151.47 59.3548 151.3 60.2055 151.129 61.09L154.57 58.3866L151.564 58.901Z"
        fill="#357CE6" />
    <path
        d="M140.241 47.0297C140.283 47.2544 140.309 47.4818 140.317 47.7103L141.113 46.6327L140.241 47.0297Z"
        fill="#357CE6" />
    <path
        d="M154.287 33.3077C154.282 32.9854 154.16 32.6757 153.944 32.436C153.729 32.1962 153.434 32.0425 153.114 32.0032C153.321 31.7481 153.429 31.426 153.415 31.0977C153.401 30.7692 153.268 30.4572 153.041 30.2202C152.813 29.9832 152.507 29.8375 152.178 29.8108C151.851 29.7841 151.524 29.878 151.262 30.0749C151.218 29.741 151.056 29.4341 150.803 29.2111C150.551 28.9881 150.227 28.8639 149.89 28.8616C149.553 28.8593 149.227 28.979 148.972 29.1986C148.717 29.4182 148.549 29.7228 148.502 30.056C148.243 29.8549 147.92 29.7555 147.592 29.7768C147.266 29.798 146.958 29.9384 146.728 30.1712C146.497 30.4042 146.36 30.7134 146.342 31.0406C146.325 31.3677 146.427 31.69 146.631 31.9465C146.307 31.9872 146.007 32.1451 145.791 32.3906C145.574 32.6359 145.455 32.9519 145.455 33.2793C145.455 33.6066 145.574 33.9226 145.791 34.168C146.007 34.4134 146.307 34.5713 146.631 34.6121C146.429 34.8689 146.329 35.1904 146.347 35.5164C146.366 35.8423 146.503 36.1502 146.733 36.3823C146.962 36.6143 147.269 36.7546 147.594 36.7767C147.921 36.7989 148.243 36.7014 148.502 36.5026C148.54 36.8277 148.696 37.1276 148.939 37.3459C149.183 37.5643 149.499 37.686 149.826 37.6883C150.153 37.6906 150.471 37.5733 150.718 37.3585C150.964 37.1436 151.124 36.846 151.167 36.5215C151.425 36.7236 151.747 36.8251 152.074 36.8071C152.4 36.7891 152.71 36.6529 152.943 36.4237C153.177 36.1947 153.319 35.8883 153.344 35.5619C153.368 35.2355 153.274 34.9114 153.077 34.6499C153.41 34.6194 153.72 34.4642 153.944 34.2155C154.168 33.9667 154.291 33.6426 154.287 33.3077Z"
        fill="#357CE6" />
    <path
        d="M150.241 40.0736C150.581 39.977 150.877 39.7654 151.079 39.4747C151.28 39.1841 151.374 38.8325 151.345 38.4801C151.317 38.1277 151.165 37.7963 150.92 37.5425C150.674 37.2887 150.346 37.1282 149.995 37.0886C150.228 36.8397 150.371 36.5202 150.402 36.1807C150.433 35.8412 150.349 35.5012 150.164 35.2146C149.98 34.928 149.705 34.7112 149.383 34.5986C149.061 34.4861 148.712 34.4841 148.388 34.5932C148.467 34.2578 148.431 33.9055 148.285 33.5934C148.139 33.2812 147.893 33.027 147.585 32.872C147.277 32.717 146.927 32.6701 146.588 32.7389C146.251 32.8075 145.946 32.9879 145.724 33.2509C145.644 32.9006 145.448 32.5876 145.168 32.3626C144.888 32.1375 144.541 32.0139 144.181 32.0117C143.821 32.0096 143.472 32.129 143.189 32.3504C142.907 32.572 142.707 32.8827 142.623 33.232C142.405 32.9662 142.105 32.7817 141.768 32.7084C141.433 32.6352 141.082 32.6776 140.773 32.8286C140.465 32.9796 140.216 33.2305 140.068 33.5405C139.921 33.8505 139.881 34.2014 139.958 34.5365C139.635 34.4207 139.284 34.4163 138.96 34.5236C138.634 34.6311 138.355 34.8441 138.166 35.1289C137.976 35.4137 137.887 35.7537 137.913 36.0949C137.94 36.436 138.079 36.7586 138.31 37.011C137.96 37.0498 137.634 37.2079 137.388 37.4587C137.141 37.7095 136.988 38.0378 136.954 38.3882C136.921 38.7386 137.009 39.0898 137.204 39.3826C137.399 39.6754 137.69 39.892 138.026 39.996C137.85 40.0982 137.697 40.2345 137.575 40.3971C137.452 40.5597 137.364 40.7451 137.315 40.9424C137.265 41.1397 137.256 41.3449 137.287 41.5458C137.319 41.7468 137.39 41.9395 137.497 42.1124C138.902 35.8091 141.781 38.9284 142.185 41.4159C142.28 41.8139 142.526 41.8318 143.036 41.2467C144.095 39.999 145.515 41.9373 143.395 43.6278C143.278 43.7213 143.121 44.4666 143.244 46.2367C143.437 46.1622 143.613 46.0504 143.762 45.9077C143.912 45.7649 144.031 45.594 144.114 45.4048C144.25 45.7288 144.494 45.9957 144.804 46.1602C145.116 46.3249 145.473 46.3772 145.818 46.3082C146.162 46.2393 146.473 46.0533 146.696 45.782C146.92 45.5105 147.042 45.1702 147.043 44.8188C147.321 45.0122 147.654 45.1076 147.992 45.09C148.33 45.0724 148.652 44.9429 148.908 44.7217C149.163 44.5006 149.338 44.2005 149.405 43.8689C149.471 43.5372 149.425 43.193 149.274 42.8905C149.491 42.9187 149.711 42.9001 149.92 42.8359C150.128 42.7715 150.321 42.663 150.484 42.5179C150.647 42.3726 150.777 42.194 150.865 41.994C150.953 41.7941 150.997 41.5776 150.994 41.3592C150.987 41.0987 150.915 40.8443 150.783 40.6194C150.652 40.3946 150.465 40.2069 150.241 40.0736Z"
        fill="#357CE6" />
    <path
        d="M145.119 66.4411C145.134 66.6266 145.075 66.8106 144.953 66.9524C144.833 67.0942 144.661 67.1823 144.476 67.1973C144.291 67.2124 144.107 67.1532 143.964 67.0326C143.823 66.9121 143.735 66.7401 143.72 66.5546C143.705 66.3691 143.763 66.1851 143.885 66.0433C144.005 65.9016 144.177 65.8134 144.362 65.7984C144.548 65.7833 144.732 65.8427 144.874 65.9631C145.015 66.0837 145.104 66.2557 145.119 66.4411Z"
        fill="#357CE6" />
    <path
        d="M137.878 61.6234C137.893 61.8088 137.834 61.9928 137.713 62.1346C137.593 62.2764 137.42 62.3645 137.235 62.3796C137.05 62.3946 136.866 62.3353 136.724 62.2148C136.583 62.0942 136.494 61.9223 136.479 61.7368C136.464 61.5512 136.523 61.3674 136.644 61.2256C136.765 61.0838 136.937 60.9956 137.122 60.9806C137.307 60.9656 137.491 61.0249 137.633 61.1454C137.775 61.2659 137.863 61.4379 137.878 61.6234Z"
        fill="#357CE6" />
    <path
        d="M144.419 56.0275C144.434 56.213 144.375 56.3969 144.254 56.5387C144.134 56.6805 143.961 56.7687 143.776 56.7837C143.591 56.7987 143.407 56.7395 143.265 56.6189C143.124 56.4984 143.035 56.3265 143.02 56.1409C143.005 55.9554 143.064 55.7715 143.185 55.6297C143.306 55.4879 143.478 55.3997 143.663 55.3847C143.848 55.3697 144.032 55.429 144.174 55.5495C144.316 55.6701 144.404 55.842 144.419 56.0275Z"
        fill="#357CE6" />
    <path
        d="M14.0055 94.5151L6.65148 101.868C5.86543 102.654 7.07435 103.873 7.84548 103.062L15.1995 95.7081C15.3577 95.5499 15.4466 95.335 15.4465 95.1111C15.4464 94.8872 15.3573 94.6723 15.199 94.5141C15.0407 94.3559 14.826 94.2673 14.6021 94.2673C14.3784 94.2673 14.1637 94.3569 14.0055 94.5151Z"
        stroke="#203657" stroke-linejoin="round" />
    <path
        d="M154.287 33.3077L154.66 33.303V33.3018L154.287 33.3077ZM153.077 34.6499L153.043 34.2783C152.908 34.2906 152.79 34.375 152.735 34.4988C152.681 34.6225 152.698 34.7662 152.778 34.8744L153.077 34.6499ZM151.167 36.5215L151.398 36.228C151.293 36.1452 151.15 36.1254 151.027 36.1759C150.903 36.2265 150.815 36.3396 150.797 36.4725L151.167 36.5215ZM150.712 37.3636L150.468 37.0806C150.381 37.1553 150.333 37.2659 150.338 37.3803C150.343 37.4947 150.401 37.6005 150.495 37.6672L150.712 37.3636ZM150.241 40.0737L150.139 39.7148C149.996 39.7555 149.891 39.8775 149.871 40.0253C149.852 40.1731 149.923 40.3181 150.05 40.3943L150.241 40.0737ZM150.994 41.3592L151.367 41.3541V41.3495L150.994 41.3592ZM149.274 42.8905L149.323 42.5206C149.185 42.5027 149.05 42.5618 148.969 42.6742C148.89 42.7865 148.879 42.934 148.94 43.0574L149.274 42.8905ZM147.043 44.8188L147.256 44.5127C147.143 44.4333 146.994 44.4237 146.871 44.4878C146.747 44.5518 146.67 44.6787 146.67 44.8175L147.043 44.8188ZM144.114 45.4049L144.458 45.2601C144.399 45.1227 144.266 45.0328 144.117 45.0317C143.967 45.0306 143.832 45.1185 143.772 45.2551L144.114 45.4049ZM143.244 46.2367L142.872 46.2627C142.88 46.3808 142.944 46.488 143.044 46.5516C143.144 46.6151 143.268 46.6274 143.378 46.5847L143.244 46.2367ZM143.036 41.2468L143.318 41.4921L143.321 41.4881L143.036 41.2468ZM142.185 41.4159L141.817 41.4757C141.818 41.4846 141.82 41.4934 141.822 41.5022L142.185 41.4159ZM137.497 42.1124L137.18 42.3088C137.259 42.4378 137.409 42.5056 137.56 42.4804C137.709 42.455 137.828 42.3417 137.861 42.1936L137.497 42.1124ZM138.026 39.996L138.213 40.3187C138.342 40.2443 138.413 40.1011 138.397 39.9539C138.381 39.8067 138.278 39.6833 138.137 39.6395L138.026 39.996ZM138.31 37.011L138.351 37.3819C138.491 37.3665 138.609 37.2739 138.659 37.1424C138.709 37.0109 138.68 36.8629 138.585 36.7592L138.31 37.011ZM139.958 34.5365L139.831 34.8876C139.96 34.9337 140.103 34.9062 140.205 34.8158C140.307 34.7253 140.352 34.5865 140.322 34.4536L139.958 34.5365ZM142.623 33.232L142.335 33.4685C142.424 33.5781 142.568 33.6274 142.707 33.5957C142.845 33.5641 142.953 33.4569 142.986 33.3192L142.623 33.232ZM145.545 32.7979L145.222 32.9868C145.295 33.1104 145.432 33.1816 145.574 33.1698C145.718 33.158 145.841 33.0655 145.893 32.9316L145.545 32.7979ZM146.631 31.9465L146.678 32.3167C146.811 32.2999 146.926 32.2123 146.976 32.0874C147.027 31.9625 147.007 31.8199 146.924 31.7144L146.631 31.9465ZM148.502 30.056L148.273 30.3505C148.377 30.4321 148.518 30.4517 148.641 30.402C148.764 30.3523 148.852 30.2408 148.871 30.1091L148.502 30.056ZM151.262 30.0749L150.892 30.1231C150.909 30.2545 150.994 30.367 151.117 30.4186C151.239 30.4702 151.379 30.4531 151.486 30.3736L151.262 30.0749ZM153.114 32.0032L152.825 31.7679C152.739 31.8732 152.717 32.0167 152.768 32.1426C152.819 32.2685 152.934 32.3569 153.069 32.3736L153.114 32.0032ZM154.66 33.3018C154.653 32.8895 154.498 32.4933 154.222 32.1866L153.667 32.6854C153.822 32.8582 153.91 33.0813 153.913 33.3134L154.66 33.3018ZM154.221 34.4653C154.508 34.1468 154.665 33.7318 154.66 33.303L153.913 33.3122C153.916 33.5533 153.829 33.7867 153.667 33.9657L154.221 34.4653ZM153.111 35.0214C153.537 34.9824 153.934 34.7838 154.221 34.4653L153.667 33.9657C153.506 34.1448 153.283 34.2564 153.043 34.2783L153.111 35.0214ZM153.716 35.5899C153.747 35.1732 153.626 34.7593 153.375 34.4254L152.778 34.8744C152.921 35.0634 152.99 35.2979 152.972 35.534L153.716 35.5899ZM153.205 36.6902C153.503 36.3976 153.685 36.0066 153.716 35.5899L152.972 35.534C152.954 35.77 152.851 35.9916 152.683 36.1572L153.205 36.6902ZM152.095 37.1796C152.512 37.1567 152.907 36.9827 153.205 36.6902L152.683 36.1572C152.514 36.323 152.29 36.4215 152.053 36.4345L152.095 37.1796ZM150.936 36.815C151.266 37.073 151.677 37.2026 152.095 37.1796L152.053 36.4345C151.817 36.4475 151.584 36.3741 151.398 36.228L150.936 36.815ZM150.962 37.64C151.278 37.3655 151.483 36.9851 151.537 36.5705L150.797 36.4725C150.766 36.7069 150.651 36.9218 150.473 37.077L150.962 37.64ZM150.954 37.6465C150.957 37.6443 150.959 37.6422 150.962 37.64L150.473 37.077C150.471 37.0782 150.47 37.0794 150.468 37.0806L150.954 37.6465ZM151.187 37.2827C151.108 37.2003 151.021 37.1259 150.928 37.06L150.495 37.6672C150.55 37.7071 150.603 37.7523 150.652 37.8024L151.187 37.2827ZM151.718 38.4495C151.681 38.0109 151.494 37.5985 151.187 37.2827L150.652 37.8024C150.838 37.9941 150.951 38.2444 150.973 38.5107L151.718 38.4495ZM151.385 39.6873C151.636 39.3256 151.753 38.8881 151.718 38.4495L150.973 38.5107C150.995 38.777 150.925 39.0426 150.772 39.2622L151.385 39.6873ZM150.342 40.4326C150.766 40.3124 151.134 40.049 151.385 39.6873L150.772 39.2622C150.62 39.4818 150.396 39.6417 150.139 39.7148L150.342 40.4326ZM151.105 40.4308C150.941 40.1517 150.71 39.9184 150.432 39.753L150.05 40.3943C150.22 40.4953 150.361 40.6376 150.461 40.8081L151.105 40.4308ZM151.367 41.3495C151.358 41.0261 151.269 40.71 151.105 40.4308L150.461 40.8081C150.561 40.9785 150.616 41.1714 150.621 41.3688L151.367 41.3495ZM151.206 42.1445C151.317 41.8956 151.371 41.6261 151.367 41.3541L150.621 41.3643C150.623 41.5292 150.59 41.6927 150.524 41.8437L151.206 42.1445ZM150.731 42.7966C150.935 42.6158 151.097 42.3934 151.206 42.1445L150.524 41.8437C150.457 41.9946 150.359 42.1294 150.236 42.2392L150.731 42.7966ZM150.029 43.1924C150.289 43.1124 150.528 42.9774 150.731 42.7966L150.236 42.2392C150.113 42.3488 149.967 42.4307 149.809 42.4793L150.029 43.1924ZM149.225 43.2604C149.495 43.2957 149.769 43.2725 150.029 43.1924L149.809 42.4793C149.652 42.5278 149.486 42.5419 149.323 42.5206L149.225 43.2604ZM149.77 43.9419C149.853 43.529 149.796 43.1003 149.607 42.7236L148.94 43.0574C149.054 43.2856 149.089 43.5454 149.039 43.7958L149.77 43.9419ZM149.151 45.004C149.471 44.7286 149.689 44.3549 149.77 43.9419L149.039 43.7958C148.989 44.046 148.857 44.2726 148.664 44.4394L149.151 45.004ZM148.011 45.4627C148.432 45.4408 148.833 45.2794 149.151 45.004L148.664 44.4394C148.471 44.6064 148.228 44.7042 147.972 44.7174L148.011 45.4627ZM146.83 45.1249C147.175 45.3658 147.591 45.4846 148.011 45.4627L147.972 44.7174C147.718 44.7308 147.466 44.6587 147.256 44.5127L146.83 45.1249ZM146.984 46.019C147.262 45.6811 147.414 45.2576 147.416 44.8201L146.67 44.8175C146.669 45.083 146.576 45.3399 146.408 45.5449L146.984 46.019ZM145.891 46.6741C146.32 46.5882 146.706 46.3568 146.984 46.019L146.408 45.5449C146.239 45.7498 146.005 45.8902 145.745 45.9424L145.891 46.6741ZM144.63 46.4899C145.016 46.6949 145.462 46.76 145.891 46.6741L145.745 45.9424C145.484 45.9944 145.214 45.9549 144.979 45.8306L144.63 46.4899ZM143.769 45.5496C143.94 45.9528 144.243 46.285 144.63 46.4899L144.979 45.8306C144.745 45.7063 144.56 45.5048 144.458 45.2601L143.769 45.5496ZM144.02 46.1774C144.205 46.0007 144.353 45.7889 144.455 45.5546L143.772 45.2551C143.709 45.3992 143.618 45.5293 143.504 45.6381L144.02 46.1774ZM143.378 46.5847C143.617 46.4926 143.835 46.3541 144.02 46.1774L143.504 45.6381C143.39 45.7468 143.256 45.8319 143.11 45.8886L143.378 46.5847ZM143.163 43.336C143.081 43.4015 143.035 43.486 143.012 43.5365C142.984 43.5957 142.963 43.6619 142.945 43.7304C142.908 43.8681 142.878 44.0476 142.858 44.2694C142.817 44.7147 142.809 45.3649 142.872 46.2627L143.616 46.2107C143.556 45.3384 143.564 44.7309 143.601 44.3377C143.619 44.1402 143.643 44.0052 143.666 43.9215C143.677 43.8793 143.685 43.8582 143.688 43.8519C143.695 43.8367 143.681 43.8774 143.628 43.9196L143.163 43.336ZM143.321 41.4881C143.529 41.2426 143.7 41.213 143.788 41.2247C143.88 41.2366 143.992 41.3061 144.063 41.4775C144.199 41.8094 144.146 42.5521 143.163 43.336L143.628 43.9196C144.764 43.013 145.061 41.9413 144.753 41.1933C144.6 40.825 144.292 40.538 143.886 40.4847C143.476 40.431 143.073 40.6271 142.752 41.0054L143.321 41.4881ZM141.822 41.5022C141.852 41.6264 141.904 41.7742 142.011 41.8913C142.137 42.0293 142.314 42.096 142.506 42.0696C142.669 42.0471 142.812 41.9618 142.93 41.8713C143.052 41.7764 143.181 41.6482 143.318 41.4921L142.755 41.0015C142.636 41.1379 142.543 41.2269 142.473 41.2807C142.397 41.3389 142.378 41.3339 142.404 41.3303C142.422 41.3279 142.453 41.3279 142.489 41.341C142.526 41.3541 142.55 41.3741 142.562 41.3881C142.58 41.4081 142.566 41.4045 142.549 41.3296L141.822 41.5022ZM137.861 42.1936C138.207 40.6386 138.634 39.7228 139.049 39.2369C139.253 38.9982 139.443 38.8753 139.609 38.8202C139.772 38.7662 139.935 38.769 140.103 38.8229C140.457 38.9363 140.838 39.2791 141.166 39.7904C141.488 40.2924 141.725 40.9058 141.817 41.4757L142.554 41.3561C142.444 40.6823 142.169 39.973 141.794 39.3875C141.424 38.8112 140.923 38.3018 140.331 38.1122C140.026 38.0147 139.7 38.0035 139.374 38.1121C139.05 38.2196 138.752 38.4359 138.482 38.7523C137.949 39.3766 137.489 40.4345 137.133 42.0312L137.861 42.1936ZM136.919 41.6034C136.958 41.8536 137.046 42.0935 137.18 42.3088L137.814 41.916C137.734 41.7855 137.68 41.6401 137.656 41.4884L136.919 41.6034ZM136.953 40.8518C136.891 41.0976 136.88 41.3531 136.919 41.6034L137.656 41.4884C137.632 41.3367 137.639 41.1819 137.676 41.0329L136.953 40.8518ZM137.276 40.1729C137.124 40.3752 137.014 40.6062 136.953 40.8518L137.676 41.0329C137.714 40.8841 137.781 40.7441 137.873 40.6214L137.276 40.1729ZM137.839 39.6734C137.62 39.8006 137.428 39.9705 137.276 40.1729L137.873 40.6214C137.965 40.4987 138.081 40.3958 138.213 40.3187L137.839 39.6734ZM136.894 39.5897C137.137 39.9539 137.498 40.2233 137.916 40.3526L138.137 39.6395C137.882 39.5609 137.663 39.3972 137.515 39.1757L136.894 39.5897ZM136.583 38.3529C136.541 38.7887 136.651 39.2254 136.894 39.5897L137.515 39.1757C137.368 38.9542 137.3 38.6885 137.326 38.4235L136.583 38.3529ZM137.122 37.197C136.814 37.5089 136.624 37.9172 136.583 38.3529L137.326 38.4235C137.351 38.1585 137.466 37.9102 137.653 37.7205L137.122 37.197ZM138.269 36.6402C137.833 36.6884 137.428 36.885 137.122 37.197L137.653 37.7205C137.84 37.5308 138.086 37.4112 138.351 37.3819L138.269 36.6402ZM137.541 36.1235C137.574 36.5478 137.748 36.9489 138.034 37.2629L138.585 36.7592C138.41 36.5683 138.305 36.3243 138.285 36.0663L137.541 36.1235ZM137.855 34.9221C137.619 35.2763 137.509 35.6992 137.541 36.1235L138.285 36.0663C138.265 35.8083 138.333 35.5511 138.476 35.3357L137.855 34.9221ZM138.842 34.1694C138.438 34.303 138.091 34.5679 137.855 34.9221L138.476 35.3357C138.619 35.1203 138.83 34.9592 139.076 34.878L138.842 34.1694ZM140.084 34.1853C139.683 34.0415 139.246 34.0359 138.842 34.1694L139.076 34.878C139.322 34.7968 139.587 34.8002 139.831 34.8876L140.084 34.1853ZM139.732 33.3796C139.548 33.7656 139.499 34.2024 139.593 34.6194L140.322 34.4536C140.264 34.2006 140.293 33.9355 140.405 33.7014L139.732 33.3796ZM140.609 32.4934C140.225 32.6815 139.916 32.9937 139.732 33.3796L140.405 33.7014C140.517 33.4673 140.705 33.2778 140.938 33.1638L140.609 32.4934ZM141.848 32.3439C141.43 32.2528 140.994 32.3055 140.609 32.4934L140.938 33.1638C141.171 33.0498 141.435 33.0177 141.689 33.073L141.848 32.3439ZM142.912 32.9956C142.641 32.6648 142.266 32.435 141.848 32.3439L141.689 33.073C141.943 33.1284 142.17 33.2677 142.335 33.4685L142.912 32.9956ZM142.96 32.0567C142.61 32.3303 142.364 32.7137 142.26 33.145L142.986 33.3192C143.05 33.0517 143.203 32.8138 143.419 32.6442L142.96 32.0567ZM144.183 31.6386C143.74 31.636 143.309 31.7833 142.96 32.0567L143.419 32.6442C143.636 32.4746 143.904 32.3832 144.178 32.3849L144.183 31.6386ZM145.402 32.0717C145.056 31.794 144.627 31.6413 144.183 31.6386L144.178 32.3849C144.454 32.3866 144.72 32.4812 144.935 32.6534L145.402 32.0717ZM145.866 32.6091C145.747 32.4047 145.589 32.2222 145.402 32.0717L144.935 32.6534C145.051 32.7468 145.148 32.86 145.222 32.9868L145.866 32.6091ZM145.512 32.1437C145.374 32.2982 145.269 32.4748 145.196 32.6642L145.893 32.9316C145.934 32.8246 145.993 32.7248 146.071 32.6374L145.512 32.1437ZM146.584 31.5763C146.169 31.6283 145.788 31.8301 145.512 32.1437L146.071 32.6374C146.227 32.4602 146.443 32.3461 146.678 32.3167L146.584 31.5763ZM145.969 31.0203C145.947 31.4385 146.078 31.8507 146.339 32.1786L146.924 31.7144C146.776 31.5293 146.702 31.2968 146.715 31.0607L145.969 31.0203ZM146.462 29.9088C146.167 30.2065 145.992 30.6021 145.969 31.0203L146.715 31.0607C146.728 30.8248 146.826 30.6017 146.993 30.4337L146.462 29.9088ZM147.568 29.4045C147.15 29.4316 146.757 29.611 146.462 29.9088L146.993 30.4337C147.159 30.2656 147.381 30.1645 147.617 30.1491L147.568 29.4045ZM148.731 29.7614C148.4 29.5043 147.986 29.3773 147.568 29.4045L147.617 30.1491C147.853 30.1338 148.086 30.2054 148.273 30.3505L148.731 29.7614ZM148.729 28.9157C148.405 29.1941 148.193 29.5803 148.133 30.0028L148.871 30.1091C148.906 29.8652 149.028 29.6422 149.215 29.4815L148.729 28.9157ZM149.893 28.4885C149.466 28.4856 149.052 28.6373 148.729 28.9157L149.215 29.4815C149.402 29.3207 149.641 29.233 149.888 29.2347L149.893 28.4885ZM151.051 28.9316C150.73 28.6489 150.32 28.4915 149.893 28.4885L149.888 29.2347C150.133 29.2364 150.371 29.3274 150.556 29.4906L151.051 28.9316ZM151.632 30.0267C151.577 29.6035 151.37 29.2144 151.051 28.9316L150.556 29.4906C150.74 29.6539 150.86 29.8786 150.892 30.1231L151.632 30.0267ZM152.209 29.4389C151.791 29.4048 151.374 29.5247 151.038 29.7761L151.486 30.3736C151.676 30.2312 151.912 30.1634 152.148 30.1827L152.209 29.4389ZM153.31 29.9617C153.019 29.659 152.627 29.473 152.209 29.4389L152.148 30.1827C152.385 30.2021 152.607 30.3073 152.771 30.4787L153.31 29.9617ZM153.788 31.0821C153.77 30.6628 153.6 30.2644 153.31 29.9617L152.771 30.4787C152.936 30.65 153.032 30.8757 153.042 31.1131L153.788 31.0821ZM153.404 32.2385C153.669 31.9128 153.805 31.5015 153.788 31.0821L153.042 31.1131C153.052 31.3506 152.975 31.5834 152.825 31.7679L153.404 32.2385ZM154.222 32.1866C153.946 31.8799 153.569 31.6832 153.16 31.6329L153.069 32.3736C153.3 32.4019 153.512 32.5127 153.667 32.6854L154.222 32.1866Z"
        fill="#203657" />
    <path d="M122.472 85.6108H114.608" stroke="#203657" stroke-linecap="round"
        stroke-linejoin="round" />
    <path
        d="M130.657 85.6108H157.215C158.042 85.6098 158.834 85.2805 159.419 84.6964C160.003 84.1113 160.332 83.3193 160.333 82.4925V53.8534"
        stroke="#203657" stroke-linecap="round" stroke-linejoin="round" />
    <path
        d="M160.335 40.0916V38.3722C160.334 37.5449 160.006 36.7518 159.421 36.167C158.836 35.5821 158.042 35.2534 157.215 35.2529H153.328"
        stroke="#203657" stroke-linecap="round" stroke-linejoin="round" />
    <path
        d="M116.022 35.2529H99.0074C98.1805 35.2537 97.3875 35.5825 96.8025 36.1674C96.2174 36.7521 95.8891 37.5451 95.8881 38.3722V46.368"
        stroke="#203657" stroke-linecap="round" stroke-linejoin="round" />
    <path d="M140.203 33.2206V30.9236H116.026V37.5215H137.128" stroke="#203657"
        stroke-linecap="round" stroke-linejoin="round" />
    <path
        d="M130.128 28.7306C130.128 29.127 130.011 29.5144 129.791 29.8439C129.57 30.1735 129.257 30.4303 128.891 30.582C128.525 30.7337 128.122 30.7734 127.733 30.6961C127.344 30.6188 126.988 30.4279 126.707 30.1476C126.427 29.8673 126.236 29.5103 126.159 29.1216C126.081 28.7328 126.121 28.33 126.272 27.9638C126.425 27.5975 126.681 27.2846 127.011 27.0644C127.34 26.8442 127.728 26.7267 128.124 26.7267C128.655 26.7269 129.165 26.9382 129.541 27.314C129.916 27.6897 130.128 28.1992 130.128 28.7306Z"
        stroke="#203657" stroke-linecap="round" stroke-linejoin="round" />
    <path d="M154.003 45.1014V41.7363H151.012" stroke="#203657" stroke-linecap="round"
        stroke-linejoin="round" />
    <path d="M118.049 48.0317H102.189V41.7363H118.049V48.0317Z" stroke="#203657"
        stroke-linecap="round" stroke-linejoin="round" />
    <path d="M106.14 54.4016H118.049V59.695H110.204" stroke="#203657" stroke-linecap="round"
        stroke-linejoin="round" />
    <path d="M102.189 68.9953V66.1028H103.286" stroke="#203657" stroke-linecap="round"
        stroke-linejoin="round" />
    <path d="M107.349 71.3773H104.967" stroke="#203657" stroke-linecap="round"
        stroke-linejoin="round" />
    <path d="M115.364 66.1028H118.049V69.0898" stroke="#203657" stroke-linecap="round"
        stroke-linejoin="round" />
    <path d="M108.748 77.2936H112.737" stroke="#203657" stroke-linecap="round"
        stroke-linejoin="round" />
    <path d="M114.759 79.3165H109.788" stroke="#203657" stroke-linecap="round"
        stroke-linejoin="round" />
    <path d="M126.366 77.2936H154.003V79.2975H130.241" stroke="#203657" stroke-linecap="round"
        stroke-linejoin="round" />
    <path
        d="M45.2337 30.64C43.4885 31.2117 41.9931 32.3665 40.999 33.9106C40.2845 33.8947 39.5856 33.6981 38.9676 33.3391C38.3495 32.9801 37.8325 32.4705 37.4645 31.8577C37.0967 31.245 36.8899 30.5491 36.8636 29.8349C36.8372 29.1207 36.9922 28.4113 37.314 27.7732C37.6358 27.1351 38.1139 26.5888 38.7038 26.1852C39.2938 25.7818 39.9762 25.5342 40.6877 25.4657C41.3991 25.3972 42.1162 25.5099 42.7723 25.7934C43.4284 26.0769 44.002 26.5218 44.4397 27.0869C44.8315 27.5809 45.1064 28.1571 45.244 28.7724C45.3815 29.3878 45.378 30.0262 45.2337 30.64Z"
        stroke="#203657" stroke-linecap="round" stroke-linejoin="round" />
    <path d="M58.71 54.2126C52.9061 49.6356 48.2376 51.3769 47.6326 46.4247" stroke="#203657"
        stroke-linecap="round" stroke-linejoin="round" />
    <path
        d="M52.6813 44.6506C51.1953 45.6976 49.4486 46.3126 47.6346 46.4277C47.6346 46.4277 47.559 44.8208 47.5779 44.4049C49.751 46.6168 51.1878 44.0457 51.3201 38.7722C49.9686 38.6624 48.6455 38.3236 47.4078 37.7702C47.162 38.8289 46.6516 40.2836 46.2356 39.4528C45.4227 37.8269 44.1461 39.1612 45.366 40.5861C45.5401 40.791 45.2526 43.2517 44.0805 45.4446C43.067 44.8558 42.159 44.1018 41.394 43.2139C40.4199 41.9556 39.8408 40.4367 39.7299 38.8493C39.6191 37.262 39.9814 35.6773 40.7711 34.2959C41.5608 32.9144 42.7425 31.7981 44.1665 31.0883C45.5907 30.3784 47.1933 30.1067 48.7719 30.3076C50.3504 30.5086 51.8339 31.1731 53.0348 32.2171C54.2355 33.2612 55.0999 34.6379 55.5183 36.173C55.9368 37.7083 55.8906 39.3332 55.3856 40.8422C54.8806 42.3512 53.9394 43.6765 52.6813 44.6506Z"
        stroke="#203657" stroke-linecap="round" stroke-linejoin="round" />
    <path
        d="M47.6345 46.4247C47.2325 45.9972 46.932 45.4845 46.7553 44.9249C46.5785 44.3652 46.5301 43.7729 46.6137 43.192C46.8985 43.623 47.2212 44.028 47.5778 44.4019"
        stroke="#203657" stroke-linecap="round" stroke-linejoin="round" />
    <path d="M39.8835 49.1093C43.3998 50.8674 47.0475 51.2823 50.0723 49.96" stroke="#203657"
        stroke-linecap="round" stroke-linejoin="round" />
    <path
        d="M53.7589 55.6872C55.4792 58.7309 53.7589 66.065 53.3997 68.7306C53.6812 69.5791 54.0619 70.3913 54.534 71.1505"
        stroke="#203657" stroke-linecap="round" stroke-linejoin="round" />
    <path d="M36.7652 61.4532C36.4623 60.5238 36.2471 59.5681 36.1224 58.5986L33.7404 62.7189"
        stroke="#203657" stroke-linecap="round" stroke-linejoin="round" />
    <path
        d="M38.1631 71.1505C38.8586 70.4109 39.4733 69.5994 39.9969 68.7297C38.6709 66.4222 37.5879 63.9833 36.7652 61.4522C33.8768 62.7722 30.853 63.7731 27.7475 64.4372C25.9813 64.8299 24.1346 64.6208 22.5009 63.8434C20.8672 63.066 19.5402 61.7649 18.7308 60.1468L10.9429 44.5342C12.0029 43.2673 13.3267 42.2471 14.8219 41.5451C16.3171 40.843 17.9476 40.476 19.5994 40.4697L26.443 54.2882C31.6261 52.8027 36.6427 50.7885 41.4138 48.2774C42.5528 47.6093 43.4725 46.6239 44.0605 45.4417"
        stroke="#203657" stroke-linecap="round" stroke-linejoin="round" />
    <path d="M85.1471 35.2529H68.3714" stroke="#203657" stroke-linecap="round"
        stroke-linejoin="round" />
    <path
        d="M40.178 35.2529H27.1803C26.3534 35.2539 25.5607 35.5829 24.9761 36.1677C24.3915 36.7525 24.0628 37.5452 24.062 38.3722V49.3928"
        stroke="#203657" stroke-linecap="round" stroke-linejoin="round" />
    <path d="M58.504 37.5215H55.7249M59.4871 37.5215H68.3714V30.9236H51.2474" stroke="#203657"
        stroke-linecap="round" stroke-linejoin="round" />
    <path
        d="M58.296 28.7306C58.296 29.127 58.1785 29.5144 57.9583 29.8439C57.7381 30.1735 57.4251 30.4303 57.059 30.582C56.6927 30.7337 56.2898 30.7734 55.9011 30.6961C55.5124 30.6188 55.1553 30.4279 54.8751 30.1476C54.5949 29.8673 54.4039 29.5103 54.3266 29.1216C54.2493 28.7328 54.289 28.33 54.4406 27.9638C54.5924 27.5975 54.8492 27.2846 55.1787 27.0644C55.5083 26.8442 55.8957 26.7267 56.292 26.7267C56.8235 26.7269 57.333 26.9382 57.7088 27.314C58.0845 27.6897 58.2958 28.1992 58.296 28.7306Z"
        stroke="#203657" stroke-linecap="round" stroke-linejoin="round" />
    <path d="M60.0154 57.3886V71.1505H30.3754V63.8153" stroke="#203657" stroke-linecap="round"
        stroke-linejoin="round" />
    <path d="M30.3754 53.0027V41.5094H40.3024" stroke="#203657" stroke-linecap="round"
        stroke-linejoin="round" />
    <path d="M82.2078 47.5401H66.3485V41.5094H82.2078V47.5401Z" stroke="#203657"
        stroke-linecap="round" stroke-linejoin="round" />
    <path d="M82.2079 79.3164H30.3754V77.2936H82.2079V79.3164Z" stroke="#203657"
        stroke-linecap="round" stroke-linejoin="round" />
    <path d="M82.2078 61.7557V71.1505H66.3485V68.7117" stroke="#203657" stroke-linecap="round"
        stroke-linejoin="round" />
    <path d="M68.2957 52.5112H76.6318" stroke="#203657" stroke-linecap="round"
        stroke-linejoin="round" />
    <path d="M180.316 155.364H10.716" stroke="#203657" stroke-linecap="round"
        stroke-linejoin="round" />
    <path
        d="M95.1001 46.179C93.2663 47.9182 90.5231 47.6914 87.2933 46.368C88.3709 46.0845 88.0893 43.2676 88.2197 42.0577C86.7829 43.3621 85.3083 44.383 84.7979 43.5701C84.3252 42.7194 84.2874 40.8667 85.0436 35.8578C85.5159 36.1087 86.0093 36.3174 86.5182 36.4817C86.3292 38.41 86.9948 38.5254 87.3878 37.8429C88.1142 36.5802 89.543 37.616 88.144 39.5443C88.8624 40.2806 91.8255 43.4248 92.3031 43.9482C93.0513 44.8971 94.0085 45.6606 95.1001 46.179Z"
        stroke="#203657" stroke-linecap="round" stroke-linejoin="round" />
    <path
        d="M95.1 46.179C97.9507 46.8753 100.545 48.367 102.58 50.4803C108.167 55.7658 112.38 64.5516 124.401 75.2897C123.816 76.8417 122.898 78.2468 121.712 79.406C120.526 80.5662 119.1 81.4517 117.535 82.0009C110.541 75.3464 105.702 70.1107 100.62 62.1328"
        stroke="#203657" stroke-linecap="round" stroke-linejoin="round" />
    <path
        d="M88.2196 42.0577C88.1629 42.6059 88.1629 43.3432 88.144 44.0616C87.0097 44.175 85.3271 44.2318 84.9679 43.8158L84.7978 43.589C85.3082 44.4019 86.7828 43.381 88.2196 42.0577Z"
        stroke="#203657" stroke-linecap="round" stroke-linejoin="round" />
    <path d="M70.4131 56.5906V61.2791C70.9773 60.4512 71.5076 59.6801 72.0121 58.9647"
        stroke="#203657" stroke-linecap="round" stroke-linejoin="round" />
    <path
        d="M83.2666 60.1866C81.1794 63.5705 78.6719 66.6764 75.8041 69.4301C72.9484 72.1315 67.9744 71.2092 65.7476 67.9744C62.62 63.2394 60.0929 58.1341 58.2244 52.7758C60.7111 50.694 63.8123 49.4855 67.0521 49.3361C68.2157 52.7771 69.889 56.0242 72.0161 58.9687C73.9663 56.1459 75.424 54.0633 76.617 52.5111C79.2826 48.9958 80.5841 48.1152 83.1004 47.4078C84.3282 47.0625 85.9551 46.7113 87.2794 46.368"
        stroke="#203657" stroke-linecap="round" stroke-linejoin="round" />
    <path d="M98.1815 88.5789C98.1815 88.5789 100.734 83.8527 100.904 81.8686L100.639 90.6395"
        stroke="#203657" stroke-linecap="round" stroke-linejoin="round" />
    <path
        d="M82.7182 57.5588C82.7182 57.5588 85.0067 68.466 86.0833 70.1296C82.8695 90.942 78.9004 133.058 78.1442 140.449C82.4314 142.282 87.2071 142.635 91.717 141.451C91.717 141.451 97.289 98.4085 98.1845 88.5789L112.173 100.412C113.363 101.431 114.764 102.174 116.275 102.587L136.728 108.238"
        stroke="#203657" stroke-linecap="round" stroke-linejoin="round" />
    <path
        d="M147.482 96.915C143.9 96.716 140.915 115.015 143.638 118.853C143.748 119.036 143.897 119.193 144.075 119.311C144.253 119.43 144.456 119.506 144.667 119.536C144.879 119.566 145.095 119.549 145.299 119.485C145.503 119.421 145.69 119.311 145.846 119.166C149.669 116.164 151.914 97.1578 147.482 96.915Z"
        stroke="#203657" stroke-linecap="round" stroke-linejoin="round" />
    <path
        d="M80.2617 141.281L79.9632 143.814C79.8237 145.047 79.3649 146.222 78.6319 147.223C77.8989 148.225 76.9173 149.017 75.7842 149.523C72.8178 150.851 70.0194 152.526 67.4481 154.514C67.3706 154.575 67.3144 154.66 67.2871 154.755C67.2598 154.85 67.2627 154.951 67.2955 155.045C67.3283 155.138 67.3893 155.219 67.47 155.277C67.5509 155.333 67.6475 155.364 67.7466 155.364C76.1961 155.364 83.2845 155.289 90.0346 155.27C90.1083 153.034 89.7686 150.804 89.0326 148.692C88.9398 148.405 88.9139 148.102 88.957 147.803C89.1211 146.536 89.4863 143.058 89.5997 141.848"
        stroke="#203657" stroke-linecap="round" stroke-linejoin="round" />
    <path
        d="M141.999 95.8753C141.585 94.5161 140.633 93.7619 139.362 94.4216C136.687 95.8076 134.04 102.943 135.422 106.748C136.057 108.494 137.445 108.961 139.126 107.161"
        stroke="#203657" stroke-linecap="round" stroke-linejoin="round" />
    <path d="M138.578 95.0056C141.499 95.8165 144.465 96.4543 147.462 96.915" stroke="#203657"
        stroke-linecap="round" stroke-linejoin="round" />
    <path
        d="M135.154 105.684C136.424 105.884 137.656 106.28 138.804 106.858C140.009 107.862 140.369 109.346 140.827 110.938C141.773 114.231 141.972 118.45 144.163 119.351"
        stroke="#203657" stroke-linecap="round" stroke-linejoin="round" />
    <path
        d="M56.7646 42.1144C57.3912 42.1449 58.0043 42.3067 58.5643 42.5894C59.1243 42.872 59.6187 43.2692 60.0153 43.7551"
        stroke="#203657" stroke-linecap="round" stroke-linejoin="round" />
    <path d="M60.9985 42.7193C60.6839 42.3697 60.3288 42.0588 59.9408 41.793" stroke="#203657"
        stroke-linecap="round" stroke-linejoin="round" />
    <path d="M56.5378 45.6307C57.0377 46.3092 57.4564 47.0439 57.7855 47.8197" stroke="#203657"
        stroke-linecap="round" stroke-linejoin="round" />
    <path d="M55.9328 43.7402C56.6701 43.5134 57.9368 43.9104 59.1278 45.1581" stroke="#203657"
        stroke-linecap="round" stroke-linejoin="round" />
    <path
        d="M58.9198 52.2276C58.803 50.7044 58.419 49.2137 57.7855 47.8237C55.7816 47.578 54.8761 45.0546 55.4035 44.1422C55.5206 43.9449 55.7108 43.8018 55.9328 43.7442C55.7868 43.3617 55.7734 42.9412 55.895 42.5502C55.9894 42.4068 56.1188 42.2899 56.271 42.2105C56.4232 42.1311 56.5931 42.0919 56.7647 42.0965C56.7632 41.8955 56.8018 41.6963 56.8781 41.5104C57.1875 40.8717 58.5795 40.8866 59.9407 41.794C57.9746 38.0896 58.4054 35.5016 58.7686 36.2748C60.0006 38.5712 61.3572 40.7987 62.8322 42.9472C62.8889 42.3801 63.0411 41.401 63.456 41.3214C63.9296 41.2318 65.3276 46.9173 65.9137 49.3938"
        stroke="#203657" stroke-linecap="round" stroke-linejoin="round" />
    <path
        d="M130.657 84.4954C129.866 84.1939 129.095 83.8407 128.351 83.4377C129.194 84.3044 130.083 85.1252 131.017 85.8944C132.251 86.7162 131.642 87.4973 130.109 86.8018C129.155 86.3332 128.233 85.8009 127.349 85.2098C128.067 86.0605 128.712 86.8715 129.013 87.1381C130.115 88.1142 129.416 88.8107 128.011 87.9341C127.187 87.3909 126.398 86.7978 125.647 86.1571C125.868 86.6068 126.128 87.0366 126.423 87.4426C127.397 88.5112 126.781 88.9351 125.458 87.9908C122.912 86.0576 120.5 83.9551 118.238 81.6965C120.849 80.5821 122.956 78.5413 124.155 75.9683C125.213 76.797 126.429 77.4016 127.727 77.7453C131.678 78.7463 131.243 79.8816 126.498 79.6169C127.973 81.1035 129.624 82.4049 131.414 83.4915C132.645 84.3014 132.248 85.0735 130.657 84.4954Z"
        stroke="#203657" stroke-linecap="round" stroke-linejoin="round" />
    <path d="M126.555 82.3611C126.99 82.6447 127.614 83.0417 128.351 83.4387" stroke="#203657"
        stroke-linecap="round" stroke-linejoin="round" />
    <path d="M126.479 79.6189C126.196 79.3204 125.893 79.014 125.61 78.6737" stroke="#203657"
        stroke-linecap="round" stroke-linejoin="round" />
    <path d="M125.081 83.6636C125.496 83.9621 126.366 84.571 127.349 85.1949" stroke="#203657"
        stroke-linecap="round" stroke-linejoin="round" />
    <path d="M123.982 84.6656C124.322 85.0059 124.946 85.5541 125.626 86.1402" stroke="#203657"
        stroke-linecap="round" stroke-linejoin="round" />
    <path
        d="M85.0436 35.8578C85.176 35.1016 85.3282 34.0997 85.5541 33.1544C85.9153 31.643 87.35 31.6231 87.2555 32.4738C88.163 30.8291 89.5997 31.4341 89.354 32.1524C90.1858 30.6779 91.7738 31.2828 91.3957 32.039C92.3221 30.7535 93.8146 31.3017 93.4554 32.1335C94.4006 30.8858 96.0264 31.4908 94.9867 33.1922C93.7698 35.1822 90.0873 40.8826 92.1211 43.7571"
        stroke="#203657" stroke-linecap="round" stroke-linejoin="round" />
    <path d="M169.673 50.4893L181.866 60.8861L169.673 71.2639" stroke="#203657"
        stroke-linecap="round" stroke-linejoin="round" />
    <path d="M13.6085 50.8485L2.24763 60.5458L14.4214 70.9236" stroke="#203657"
        stroke-linecap="round" stroke-linejoin="round" />
    <path d="M83.1154 47.4078C83.1154 47.4078 87.161 62.3219 83.2865 60.1727" stroke="#203657"
        stroke-linecap="round" stroke-linejoin="round" />
    <path
        d="M98.8084 47.6357C100.371 49.1709 100.982 54.3459 100.798 57.6354C100.54 61.1924 100.577 64.765 100.912 68.3157C105.102 70.2013 107.43 74.5285 109.21 78.1831C111.592 83.1173 117.568 88.5829 117.568 88.5829L140.589 94.2325"
        stroke="#203657" stroke-linecap="round" stroke-linejoin="round" />
    <path
        d="M85.5352 46.8028C86.2148 48.7442 86.7209 50.742 87.0476 52.7728L97.694 52.4893C97.3228 50.451 96.8044 48.4421 96.1437 46.4785"
        stroke="#203657" stroke-linecap="round" stroke-linejoin="round" />
    <path d="M18.8631 90.8475L14.5916 95.119" stroke="#203657" stroke-linecap="round"
        stroke-linejoin="round" />
    <path
        d="M24.062 64.477V82.4925C24.063 83.3193 24.3919 84.1114 24.9765 84.6964C25.561 85.2805 26.3536 85.6098 27.1803 85.6108H83.9829"
        stroke="#203657" stroke-linecap="round" stroke-linejoin="round" />
    <path
        d="M29.4678 80.2428C30.5164 81.2915 31.2305 82.6278 31.5197 84.0825C31.809 85.5362 31.6605 87.0446 31.093 88.4147C30.5254 89.7849 29.5643 90.955 28.3312 91.7798C27.0981 92.6037 25.6484 93.0435 24.1655 93.0435C22.6824 93.0435 21.2327 92.6037 19.9997 91.7798C18.7666 90.955 17.8055 89.7849 17.238 88.4147C16.6704 87.0446 16.5219 85.5362 16.8111 84.0825C17.1004 82.6278 17.8145 81.2915 18.8631 80.2428C20.2702 78.8379 22.1773 78.0492 24.1655 78.0492C26.1537 78.0492 28.0607 78.8379 29.4678 80.2428Z"
        stroke="#203657" stroke-linecap="round" stroke-linejoin="round" />
    <path d="M78.3711 5.0835H70.2051" stroke="#203657" stroke-linecap="round"
        stroke-linejoin="round" />
    <path d="M74.2975 9.16596V1" stroke="#203657" stroke-linecap="round" stroke-linejoin="round" />
    <path
        d="M118.389 121.792C118.43 122.26 118.331 122.728 118.106 123.14C117.881 123.551 117.538 123.886 117.122 124.103C116.706 124.32 116.236 124.409 115.769 124.358C115.302 124.307 114.862 124.119 114.503 123.818C114.142 123.516 113.881 123.115 113.749 122.665C113.618 122.215 113.623 121.735 113.763 121.288C113.905 120.84 114.174 120.445 114.54 120.15C114.906 119.857 115.35 119.678 115.818 119.637C116.445 119.582 117.068 119.778 117.549 120.182C118.032 120.586 118.333 121.165 118.389 121.792Z"
        stroke="#203657" stroke-linecap="round" stroke-linejoin="round" />
    <path
        d="M188.142 27.1625C187.31 27.7482 186.416 28.2425 185.477 28.6371C185.628 28.5237 186.706 27.2192 187.972 25.6312C189.485 23.7407 189.067 22.89 186.97 24.7994C186.227 25.4851 185.43 26.111 184.588 26.671C184.683 26.5387 186.081 24.3457 187.027 22.5497C188.086 20.508 187.326 20.0164 185.779 21.9825C185.698 22.082 182.986 25.3029 182.206 26.1615L182.771 25.5198C182.927 24.4603 183.232 23.4286 183.681 22.4562C184.532 20.4662 183.816 19.8921 182.452 22.0214C182.378 22.1358 180.399 25.3357 180.032 25.7645C179.734 26.1098 179.2 26.672 178.88 26.5605C177.708 26.1257 176.328 23.3278 175.326 23.8193C174.683 24.1178 175.761 25.9367 176.385 27.2411C176.848 28.2172 175.98 29.4033 175.042 30.1704C177.225 31.7406 178.901 33.916 179.862 36.428C183.813 33.1196 184.815 31.9505 187.84 29.1873C188.18 28.867 188.577 28.4908 189.012 28.0351C190.638 26.3307 190.335 25.6312 188.142 27.1625Z"
        stroke="#203657" stroke-linecap="round" stroke-linejoin="round" />
    <path d="M154.57 58.3906L151.564 58.9011C151.47 59.3548 151.3 60.2055 151.129 61.0901"
        stroke="#203657" stroke-linecap="round" stroke-linejoin="round" />
    <path
        d="M145.138 49.6008C145.95 49.9411 147.083 49.8625 148.634 49.0525C150.56 48.0466 173.36 29.9784 173.36 29.9784C175.383 28.4481 181.771 37.1424 179.673 38.6747L151.129 61.094C150.508 64.4227 150.198 67.8021 150.203 71.1883"
        stroke="#203657" stroke-linecap="round" stroke-linejoin="round" />
    <path
        d="M138.937 51.0187C139.482 50.5112 139.885 49.8708 140.108 49.1604C140.331 48.45 140.366 47.6938 140.208 46.966C139.008 47.3222 136.119 47.7063 137.594 41.5861C138.987 35.8668 141.712 39.0677 142.149 41.2796C142.241 41.7522 142.427 41.9462 143.02 41.2458C144.077 39.997 145.499 41.9423 143.379 43.6278C143.081 43.8686 142.711 48.564 145.119 49.5978C142.415 54.8932 140.336 55.3847 138.937 51.0187Z"
        stroke="#203657" stroke-linecap="round" stroke-linejoin="round" />
    <path d="M140.208 46.965C140.499 46.8735 140.878 46.7103 141.111 46.6327L140.3 47.7103"
        stroke="#203657" stroke-linecap="round" stroke-linejoin="round" />
    <path
        d="M124.363 64.4203C128.691 57.71 132.567 53.6464 137.16 52.0385C137.814 51.8219 138.419 51.475 138.937 51.0186"
        stroke="#203657" stroke-linecap="round" stroke-linejoin="round" />
    <path
        d="M134.344 57.124C133.249 59.4682 132.13 60.4701 134.798 68.3525C135.196 69.5246 135.308 69.8838 135.875 71.3773"
        stroke="#203657" stroke-linecap="round" stroke-linejoin="round" />
    <path d="M140.922 53.929C139.787 58.8632 140.071 64.6472 141.413 71.037" stroke="#203657"
        stroke-linecap="round" stroke-linejoin="round" />
    <path d="M181.223 25.6123C182.841 26.4774 184.106 27.8816 184.796 29.5814" stroke="#203657"
        stroke-linecap="round" stroke-linejoin="round" />
    <path d="M180.788 27.1625C181.828 28.9963 181.883 30.7157 180.49 32.1525" stroke="#203657"
        stroke-linecap="round" stroke-linejoin="round" />
    <path d="M133.985 65.8004C132.734 67.83 131.221 69.6859 129.485 71.3206" stroke="#203657"
        stroke-linecap="round" stroke-linejoin="round" />
    <path
        d="M12.1808 43.2945C11.4664 41.5433 10.6354 39.842 9.69329 38.202C8.71182 36.7146 7.57076 35.339 6.29039 34.0997C4.39986 32.2808 4.571 31.5664 7.0655 32.9276C7.97791 33.4251 16.4653 39.201 17.8224 40.6229"
        stroke="#203657" stroke-linecap="round" stroke-linejoin="round" />
    <path
        d="M13.2871 37.1623C14.5538 37.9185 13.7389 35.2718 13.703 34.2509C13.6632 33.1355 14.0383 31.9087 15.0264 34.8559C15.749 36.8691 16.6801 38.8013 17.8044 40.6209"
        stroke="#203657" stroke-linecap="round" stroke-linejoin="round" />
    <path
        d="M6.67148 34.4778C6.00393 33.9802 5.30972 33.5195 4.59191 33.0977C1.90541 31.5933 1.81287 32.5306 2.89046 33.3435C3.8168 34.04 5.36701 35.1345 6.14114 35.8767C7.38987 37.0707 10.5082 39.4309 11.0942 40.81"
        stroke="#203657" stroke-linecap="round" stroke-linejoin="round" />
    <path
        d="M2.73917 33.23C0.981 32.7385 0.848666 33.246 1.09443 33.4002C2.06555 34.0131 3.75506 34.825 4.68638 35.3663C5.21274 35.6728 7.31315 36.9921 7.82359 37.3702"
        stroke="#203657" stroke-linecap="round" stroke-linejoin="round" />
    <path d="M54.4583 61.2831L59.9964 64.7228" stroke="#203657" stroke-linecap="round"
        stroke-linejoin="round" />
    <path d="M137.5 41.7363H124.363V71.3773H154.003V58.901" stroke="#203657" stroke-linecap="round"
        stroke-linejoin="round" />
    <path d="M62.8323 42.9462C63.2116 43.652 63.5218 44.3927 63.7586 45.1581" stroke="#203657"
        stroke-linecap="round" stroke-linejoin="round" />
    <path d="M84.6277 59.9408L87.7092 70.1296L80.2616 141.224" stroke="#203657"
        stroke-linecap="round" stroke-linejoin="round" stroke-dasharray="2.97 4.94" />
    <path d="M99.8641 85.1193L115.213 98.4085L135.062 104.099" stroke="#203657"
        stroke-linecap="round" stroke-linejoin="round" stroke-dasharray="2.97 4.94" />
</svg>