<svg width="143" height="117" viewBox="0 0 143 117" fill="none" xmlns="http://www.w3.org/2000/svg">
<path d="M76.7 57.8C71.4 52.4 63.9 49.1 54.3 47.9L79.7 22.5V0H3.5V24.7H46.8L23.9 47.9V65.4H32.9C34.2 65.4 35.5 65.4 36.7 65.5C43.2 65.8 48 66.8 51.1 68.6C54.8 70.7 56.7 74 56.7 78.4C56.7 82.4 55.3 85.6 52.3 87.9C49.3 90.2 45 91.4 39.2 91.4C31.8 91.4 24.6 89.1 17.6 84.6L0 102.2C10.9 111.6 24.4 116.2 40.5 116.2C54.3 116.2 65.2 112.9 73 106.3C80.8 99.7 84.7 90.7 84.7 79.5C84.7 70.5 82.1 63.2 76.7 57.8Z" fill="#E32933"/>
<path d="M66.8 110.6C58 106.8 51.1 101.7 46 95.2L60.3 78.6C64.6 83.4 70 87.1 76.3 89.7C82.6 92.3 89.4 93.7 96.4 93.7C102.6 93.7 107.4 92.7 110.8 90.6C114.2 88.5 115.9 85.7 115.9 82.1C115.9 79.2 114.7 76.8 112.3 74.9C109.9 72.9 106 71.3 100.5 70L82.6 65.9C71.3 63.2 63.1 59.3 57.8 54.1C52.5 48.9 49.9 42.4 49.9 34.6C49.9 24.2 54 15.9 62.1 9.5C70.3 3.2 81.4 0 95.3 0C105 0 113.7 1.5 121.6 4.6C129.5 7.7 135.8 12 140.5 17.5L126.4 34.6C117 26.5 106.4 22.5 94.6 22.5C88.5 22.5 84 23.5 80.9 25.5C77.8 27.5 76.2 30.3 76.2 33.7C76.2 36.4 77.4 38.6 79.7 40.3C82 42 86 43.4 91.6 44.7L110.6 49.2C121.9 51.7 129.9 55.4 134.8 60.6C139.7 65.8 142.2 72.2 142.2 80.2C142.2 91.3 138.1 100.1 130 106.5C121.9 112.9 110.6 116.1 96.1 116.1C85.4 116.2 75.6 114.3 66.8 110.6Z" fill="#6DC5D7"/>
<path d="M76.3 89.7001C70 87.0001 64.6 83.3001 60.3 78.6001L54.9 84.9001C54.3 85.9001 53.6 86.7001 52.7 87.5001L46.1 95.3001C51.1 101.8 58 106.9 66.8 110.6C69.1 109.4 71.2 108 73.1 106.3C77.8 102.3 81 97.5001 82.9 91.9001C80.6 91.3001 78.4 90.6001 76.3 89.7001Z" fill="#313886"/>
<path d="M49.9 34.5999C49.9 42.3999 52.5 48.8999 57.8 54.0999C63 59.1999 71.1 62.9999 82 65.5999C80.7 62.6999 79 60.1 76.7 57.8C71.4 52.4 63.9 49.1 54.3 47.9L79.7 22.5V1.69995C72.8 3.19995 67 5.79995 62.2 9.59995C54 15.9 49.9 24.2999 49.9 34.5999Z" fill="#313886"/>
</svg>
