<svg width="499" height="557" viewBox="0 0 499 557" fill="none" xmlns="http://www.w3.org/2000/svg">
<g clip-path="url(#clip0_2_2)">
<path d="M82.6644 55.5143C82.6644 29.1045 104.074 7.69498 130.484 7.69498C156.894 7.69498 178.303 29.1044 178.303 55.5143C178.303 76.9329 164.221 95.06 144.81 101.148L135.566 162.242L88.4399 122.97C88.4399 122.97 98.6206 110.002 104.08 95.3802C91.1762 86.8166 82.6644 72.1622 82.6644 55.5143Z" fill="#E09093"/>
<path d="M9.78325 412.107L21.6367 328.188L47.2084 345.064L30.5683 416.193C33.6423 420.622 34.9696 426.748 33.7227 433.09C31.5409 444.187 22.3277 451.719 13.1443 449.913C3.96078 448.107 -1.71505 437.648 0.466713 426.551C1.71368 420.21 5.26138 415.042 9.78325 412.107Z" fill="#E09093"/>
<path d="M244.051 405.541L232.197 321.622L206.625 338.498L223.265 409.628C220.191 414.057 218.864 420.183 220.111 426.525C222.293 437.621 231.506 445.153 240.69 443.347C249.873 441.542 255.549 431.083 253.367 419.986C252.12 413.644 248.572 408.477 244.051 405.541Z" fill="#E09093"/>
<path d="M143.923 112.283L88.1158 120.49V135.373C88.1158 135.373 40.5155 127.056 33.9499 168.09V269.857L10.9705 371.623L40.5155 378.188L77.4467 269.857L91.6271 283.288H165.49L183.205 269.857L206.296 361.774L240.765 348.643L222.901 263.291C222.901 263.291 230.917 156.601 193.165 140.187C155.413 123.773 155.413 128.697 155.413 128.697L143.923 112.283Z" fill="#CACACA"/>
<path d="M91.3985 282.988L84.8329 301.043C84.8329 301.043 35.5913 348.643 45.4396 471.747L206.296 466.823C206.296 466.823 229.275 335.512 175.109 297.76L165.248 282.988H91.3985Z" fill="#203657"/>
<path d="M67.3107 118.344C67.3107 118.344 69.5437 135.286 90.2324 135.839C118.21 136.587 132.2 136.961 132.199 136.961C132.199 136.961 96.7227 50.6242 111.31 60.3507C125.898 70.0771 164.798 29.3008 164.798 29.3008L176.276 50.8277C176.276 50.8277 203.698 40.8977 173.307 16.5815C173.307 16.5815 137.047 -11.4521 98.5519 5.38218C60.0572 22.2164 67.3107 118.344 67.3107 118.344Z" fill="#090814"/>
<path d="M372.191 555.828L143.072 492.907C137.629 491.412 134.418 485.769 135.913 480.327L248.804 69.2471C250.298 63.8056 255.941 60.5937 261.383 62.0883L490.503 125.009C495.945 126.504 499.156 132.147 497.662 137.589L384.771 548.669C383.276 554.11 377.634 557.322 372.191 555.828Z" fill="white"/>
<path d="M372.191 555.828L143.072 492.907C137.629 491.412 134.418 485.769 135.913 480.327L248.804 69.2471C250.298 63.8056 255.941 60.5937 261.383 62.0883L490.503 125.009C495.945 126.504 499.156 132.147 497.662 137.589L384.771 548.669C383.276 554.11 377.634 557.322 372.191 555.828Z" stroke="#2F2E41" stroke-miterlimit="10"/>
<path d="M390.164 401.531L201.965 349.847C195.815 348.159 192.185 341.782 193.874 335.632L236.739 179.544C238.428 173.394 244.805 169.766 250.955 171.455L439.154 223.138C445.304 224.827 448.932 231.203 447.243 237.353L404.378 393.441C402.689 399.591 396.314 403.22 390.164 401.531Z" fill="#CACACA"/>
<path d="M307.102 156.178L255.97 142.136C253.344 141.415 251.795 138.693 252.516 136.068L255.78 124.183C256.501 121.558 259.223 120.008 261.848 120.729L312.981 134.771C315.605 135.492 317.154 138.214 316.433 140.84L313.169 152.725C312.448 155.35 309.726 156.899 307.102 156.178Z" fill="#CACACA"/>
<path d="M310.491 118.74L265.039 106.258C262.815 105.647 261.503 103.341 262.114 101.117L264.798 91.3449C265.409 89.1202 267.714 87.8076 269.938 88.4186L315.39 100.901C317.615 101.512 318.926 103.817 318.315 106.042L315.632 115.814C315.021 118.038 312.716 119.351 310.491 118.74Z" fill="#CACACA"/>
<path d="M380.243 176.265L329.111 162.222C326.485 161.501 324.936 158.779 325.657 156.155L328.921 144.269C329.642 141.644 332.364 140.094 334.989 140.815L386.122 154.857C388.746 155.578 390.295 158.3 389.574 160.926L386.31 172.811C385.589 175.436 382.867 176.985 380.243 176.265Z" fill="#CACACA"/>
<path d="M453.384 196.351L402.252 182.308C399.626 181.587 398.077 178.865 398.798 176.241L402.062 164.355C402.783 161.73 405.505 160.18 408.13 160.901L459.263 174.943C461.887 175.664 463.436 178.386 462.715 181.012L459.451 192.897C458.73 195.522 456.008 197.071 453.384 196.351Z" fill="#CACACA"/>
<path d="M191.592 410.308C183.232 408.012 178.297 399.342 180.593 390.981C182.889 382.619 191.56 377.686 199.921 379.981C208.281 382.277 213.216 390.948 210.92 399.309C208.624 407.67 199.953 412.604 191.592 410.308Z" fill="#357CE6"/>
<path d="M320.557 471.624L176.059 431.942C172.123 430.861 169.802 426.781 170.883 422.846C171.963 418.912 176.043 416.59 179.978 417.67L324.476 457.353C328.412 458.433 330.733 462.513 329.652 466.448C328.572 470.382 324.492 472.705 320.557 471.624Z" fill="#CACACA"/>
<path d="M314.345 497.736L169.847 458.054C165.912 456.973 163.591 452.893 164.671 448.958C165.752 445.024 169.831 442.702 173.767 443.782L318.265 483.464C322.2 484.545 324.521 488.625 323.441 492.56C322.36 496.494 318.281 498.817 314.345 497.736Z" fill="#CACACA"/>
<path d="M255.508 509.396L163.636 484.166C159.7 483.085 157.379 479.005 158.46 475.07C159.54 471.136 163.619 468.813 167.555 469.894L259.427 495.124C263.363 496.205 265.684 500.285 264.603 504.219C263.523 508.154 259.443 510.476 255.508 509.396Z" fill="#CACACA"/>
</g>
<defs>
<clipPath id="clip0_2_2">
<rect width="498.528" height="556.694" fill="white"/>
</clipPath>
</defs>
</svg>
