<svg width="975" height="675" viewBox="0 0 975 675" fill="none" xmlns="http://www.w3.org/2000/svg">
<g clip-path="url(#clip0_1_29)">
<path d="M88.0969 294.908C70.0509 309.673 99.5806 439.276 99.5806 439.276C99.5806 439.276 106.143 636.962 120.087 645.985C134.032 655.008 165.202 645.164 177.506 643.524C189.81 641.883 179.147 519.663 161.101 474.548C143.055 429.433 157 363.811 157 363.811L254.612 382.677C254.612 382.677 195.552 432.714 198.013 443.377C200.474 454.041 263.635 490.133 275.119 491.773C286.603 493.414 308.75 426.152 328.437 380.216C348.123 334.281 193.912 304.751 193.912 304.751L172.585 264.558C172.585 264.558 106.143 280.143 88.0969 294.908Z" fill="#203657"/>
<path d="M137.088 649.388C137.088 649.388 131.135 670.222 137.088 670.222C143.04 670.222 153.953 676.174 170.818 674.19C187.683 672.206 182.722 651.373 170.818 648.396C158.913 645.42 161.889 621.611 161.889 621.611C157.921 613.674 139.072 623.595 139.072 623.595L137.088 649.388Z" fill="#203657"/>
<path d="M221.594 483.721C221.594 483.721 211.382 502.831 217.2 504.086C223.019 505.341 232.431 513.461 249.335 515.078C266.239 516.695 265.784 495.284 254.775 489.865C243.765 484.445 251.696 461.798 251.696 461.798C249.49 453.204 228.973 458.926 228.973 458.926L221.594 483.721Z" fill="#203657"/>
<path d="M99.1705 117.319C100.811 120.6 93.4286 161.614 93.4286 161.614L99.9908 173.098C99.9908 173.098 137.723 158.333 131.981 155.872C126.239 153.411 127.06 123.061 127.06 123.061C127.06 123.061 97.53 114.038 99.1705 117.319Z" fill="#FFB9B9"/>
<path d="M113.373 129.962C141.149 129.962 163.667 107.444 163.667 79.6675C163.667 51.8909 141.149 29.3735 113.373 29.3735C85.5959 29.3735 63.0785 51.8909 63.0785 79.6675C63.0785 107.444 85.5959 129.962 113.373 129.962Z" fill="#203657"/>
<path d="M109.904 53.3954C121.398 53.3954 130.715 44.0778 130.715 32.5841C130.715 21.0903 121.398 11.7728 109.904 11.7728C98.4102 11.7728 89.0927 21.0903 89.0927 32.5841C89.0927 44.0778 98.4102 53.3954 109.904 53.3954Z" fill="#203657"/>
<path d="M119.009 42.0101C119.729 42.0849 120.453 42.1225 121.177 42.1227C123.91 42.1227 126.616 41.5844 129.141 40.5385C131.666 39.4926 133.96 37.9597 135.893 36.0272C137.825 34.0946 139.358 31.8004 140.404 29.2755C141.45 26.7505 141.988 24.0443 141.988 21.3113C141.988 18.5783 141.45 15.8721 140.404 13.3472C139.358 10.8222 137.825 8.52801 135.893 6.5955C133.96 4.66299 131.666 3.13003 129.141 2.08417C126.616 1.0383 123.91 0.5 121.177 0.5C120.453 0.500186 119.729 0.537741 119.009 0.612518C124.125 1.14856 128.862 3.56043 132.304 7.38278C135.747 11.2051 137.652 16.1671 137.652 21.3113C137.652 26.4556 135.747 31.4175 132.304 35.2399C128.862 39.0622 124.125 41.4741 119.009 42.0101Z" fill="#203657"/>
<path d="M114.756 138.646C133.783 138.646 149.207 123.222 149.207 104.195C149.207 85.1678 133.783 69.7434 114.756 69.7434C95.7287 69.7434 80.3043 85.1678 80.3043 104.195C80.3043 123.222 95.7287 138.646 114.756 138.646Z" fill="#FFB9B9"/>
<path d="M65.1291 157.102C54.4655 159.563 36.4196 185.812 36.4196 185.812L65.1291 214.521C65.1291 214.521 85.6359 291.627 88.0967 294.908C104.218 316.404 176.686 268.659 176.686 268.659C176.686 268.659 173.815 245.282 175.456 233.798C177.034 222.753 169.304 200.577 169.304 200.577C169.304 200.577 196.373 189.093 190.631 177.609C184.889 166.125 149.617 139.877 134.852 148.9C120.087 157.923 90.5577 148.9 90.5577 148.9C90.5577 148.9 75.7927 154.642 65.1291 157.102Z" fill="#E6E6E6"/>
<path d="M274.709 322.387C274.709 322.387 321.464 362.581 332.948 354.378C344.432 346.175 288.653 317.466 288.653 317.466L274.709 322.387Z" fill="#FFB9B9"/>
<path d="M64.7191 308.443C71.2812 315.825 102.452 296.959 98.4554 288.58C94.4593 280.202 69.6407 296.959 69.6407 296.959C69.6407 296.959 58.1569 301.06 64.7191 308.443Z" fill="#FFB9B9"/>
<path d="M65.1292 197.296L30.6778 261.277C30.6778 261.277 70.0508 294.088 74.9724 294.908C79.894 295.728 65.1291 317.055 65.1291 317.055C65.1291 317.055 20.8344 285.885 3.60873 270.3C-13.617 254.715 36.4196 185.812 36.4196 185.812L51.1846 176.789L65.1292 197.296Z" fill="#E6E6E6"/>
<path d="M165.202 194.835L205.396 257.176C205.396 257.176 266.916 326.078 275.119 329.36C283.322 332.641 293.165 317.055 293.165 317.055L219.34 227.646L191.451 177.609L180.788 173.508L165.202 194.835Z" fill="#E6E6E6"/>
<path d="M113.373 84.0733C132.529 84.0733 148.058 74.7558 148.058 63.262C148.058 51.7682 132.529 42.4507 113.373 42.4507C94.2162 42.4507 78.687 51.7682 78.687 63.262C78.687 74.7558 94.2162 84.0733 113.373 84.0733Z" fill="#203657"/>
<path d="M210.677 512.289C209.54 512.291 208.45 512.743 207.647 513.547C206.843 514.351 206.39 515.441 206.389 516.577V662.822C206.39 663.959 206.843 665.049 207.647 665.852C208.45 666.656 209.54 667.108 210.677 667.11H709.346C710.483 667.108 711.572 666.656 712.376 665.852C713.18 665.049 713.632 663.959 713.634 662.822V516.577C713.632 515.44 713.18 514.351 712.376 513.547C711.572 512.743 710.483 512.291 709.346 512.289L210.677 512.289Z" fill="#E6E6E6"/>
<path d="M217.134 656.365H702.888V523.035H217.134V656.365Z" fill="white"/>
<path d="M641.574 628.705C640.641 628.704 639.716 628.886 638.854 629.243C637.991 629.599 637.207 630.122 636.546 630.782C635.886 631.442 635.362 632.225 635.005 633.087C634.647 633.95 634.463 634.874 634.463 635.807C634.463 636.741 634.647 637.665 635.005 638.527C635.362 639.39 635.886 640.173 636.546 640.833C637.207 641.492 637.991 642.015 638.854 642.372C639.716 642.728 640.641 642.911 641.574 642.91H669.985C671.868 642.91 673.675 642.162 675.007 640.83C676.339 639.498 677.087 637.691 677.087 635.807C677.087 633.924 676.339 632.117 675.007 630.785C673.675 629.453 671.868 628.705 669.985 628.705H641.574Z" fill="#357CE6"/>
<path d="M677.087 614.928H349.122V616.796H677.087V614.928Z" fill="#E6E6E6"/>
<path d="M280.567 631.069C303.414 631.069 321.936 612.547 321.936 589.7C321.936 566.852 303.414 548.33 280.567 548.33C257.719 548.33 239.198 566.852 239.198 589.7C239.198 612.547 257.719 631.069 280.567 631.069Z" fill="#357CE6"/>
<path d="M349.64 604.493L348.604 602.938L382.684 580.217L406.054 591.435L439.669 569.959L506.537 598.483L559.787 572.325L611.495 593.288L676.468 535.741L677.707 537.14L611.867 595.456L559.86 574.371L506.591 600.538L439.843 572.065L406.184 593.571L382.835 582.364L349.64 604.493Z" fill="#282646"/>
<path d="M355.195 629.682C354.397 629.681 353.607 629.837 352.869 630.142C352.131 630.447 351.461 630.894 350.896 631.458C350.331 632.022 349.883 632.692 349.577 633.429C349.271 634.167 349.114 634.957 349.114 635.755C349.114 636.553 349.271 637.344 349.577 638.081C349.883 638.819 350.331 639.488 350.896 640.052C351.461 640.617 352.131 641.064 352.869 641.369C353.607 641.673 354.397 641.83 355.195 641.829H418.733C420.342 641.827 421.885 641.186 423.022 640.047C424.16 638.908 424.798 637.365 424.798 635.755C424.798 634.146 424.16 632.602 423.022 631.463C421.885 630.325 420.342 629.684 418.733 629.682H355.195Z" fill="#E6E6E6"/>
<path d="M296.367 571.192H302.831L289.381 584.503C287.031 586.819 283.864 588.118 280.565 588.118C277.266 588.118 274.099 586.819 271.749 584.503L258.301 571.192H264.765L274.982 581.304C276.471 582.771 278.476 583.594 280.566 583.594C282.656 583.594 284.661 582.771 286.149 581.304L296.367 571.192ZM264.683 608.207H258.219L271.751 594.814C274.101 592.498 277.268 591.199 280.567 591.199C283.866 591.199 287.033 592.498 289.382 594.814L302.915 608.207H296.451L286.149 598.013C284.661 596.546 282.656 595.723 280.566 595.723C278.476 595.723 276.471 596.546 274.982 598.013L264.683 608.207Z" fill="white"/>
<path d="M275.612 43.8543C274.475 43.8556 273.386 44.3078 272.582 45.1116C271.778 45.9155 271.326 47.0053 271.324 48.1421V194.387C271.326 195.524 271.778 196.613 272.582 197.417C273.386 198.221 274.475 198.673 275.612 198.675H774.281C775.418 198.673 776.508 198.221 777.311 197.417C778.115 196.613 778.567 195.524 778.569 194.387V48.1421C778.567 47.0053 778.115 45.9155 777.311 45.1116C776.508 44.3078 775.418 43.8556 774.281 43.8542L275.612 43.8543Z" fill="#E6E6E6"/>
<path d="M282.069 187.929H767.823V54.5995H282.069V187.929Z" fill="white"/>
<path d="M706.509 160.27C704.626 160.27 702.819 161.018 701.487 162.35C700.155 163.682 699.407 165.488 699.407 167.372C699.407 169.256 700.155 171.063 701.487 172.395C702.819 173.727 704.626 174.475 706.509 174.475H734.92C736.804 174.475 738.61 173.727 739.942 172.395C741.274 171.063 742.023 169.256 742.023 167.372C742.023 165.488 741.274 163.682 739.942 162.35C738.61 161.018 736.804 160.27 734.92 160.27H706.509Z" fill="#357CE6"/>
<path d="M742.023 146.493H414.057V148.361H742.023V146.493Z" fill="#E6E6E6"/>
<path d="M345.502 162.634C368.349 162.634 386.871 144.112 386.871 121.264C386.871 98.4169 368.349 79.8953 345.502 79.8953C322.654 79.8953 304.133 98.4169 304.133 121.264C304.133 144.112 322.654 162.634 345.502 162.634Z" fill="#357CE6"/>
<path d="M414.575 136.057L413.539 134.502L447.619 111.782L470.989 123L504.604 101.524L505.058 101.717L571.472 130.048L624.722 103.89L676.43 124.853L741.403 67.305L742.642 68.704L676.802 127.02L624.795 105.936L571.527 132.103L504.779 103.63L471.119 125.135L447.77 113.927L414.575 136.057Z" fill="#282646"/>
<path d="M420.13 161.247C418.521 161.249 416.978 161.889 415.841 163.028C414.704 164.167 414.065 165.711 414.065 167.32C414.065 168.929 414.704 170.473 415.841 171.612C416.978 172.751 418.521 173.391 420.13 173.393H483.668C485.279 173.393 486.824 172.754 487.963 171.615C489.102 170.476 489.741 168.931 489.741 167.32C489.741 165.709 489.102 164.164 487.963 163.025C486.824 161.886 485.279 161.247 483.668 161.247H420.13Z" fill="#E6E6E6"/>
<path d="M362.147 116.436C362.92 111.259 358.979 108.476 353.589 106.619L355.337 99.6067L351.067 98.5429L349.365 105.371C348.244 105.091 347.092 104.827 345.946 104.566L347.661 97.693L343.394 96.6292L341.645 103.64C340.716 103.428 339.804 103.219 338.919 102.999L338.924 102.977L333.037 101.507L331.901 106.066C331.901 106.066 335.069 106.792 335.002 106.837C335.592 106.908 336.132 107.208 336.504 107.672C336.876 108.136 337.051 108.728 336.991 109.32L334.999 117.309C335.15 117.346 335.298 117.394 335.443 117.451L334.993 117.339L332.201 128.531C332.139 128.726 332.04 128.907 331.908 129.064C331.776 129.221 331.615 129.35 331.433 129.444C331.251 129.539 331.053 129.596 330.849 129.613C330.645 129.63 330.439 129.607 330.244 129.545C330.287 129.607 327.142 128.77 327.142 128.77L325.022 133.658L330.579 135.043C331.612 135.302 332.625 135.573 333.621 135.828L331.854 142.922L336.118 143.986L337.869 136.968C339.032 137.284 340.163 137.576 341.269 137.851L339.526 144.836L343.794 145.9L345.561 138.82C352.84 140.198 358.315 139.642 360.616 133.06C362.473 127.759 360.525 124.701 356.695 122.706C359.484 122.06 361.585 120.226 362.146 116.436L362.147 116.436ZM352.393 130.112C351.072 135.413 342.148 132.549 339.253 131.829L341.597 122.432C344.491 123.154 353.769 124.584 352.394 130.112H352.393ZM353.712 116.359C352.508 121.181 345.08 118.731 342.669 118.131L344.794 109.608C347.205 110.209 354.966 111.33 353.712 116.359Z" fill="white"/>
<path d="M471.799 278.072C470.662 278.073 469.572 278.525 468.768 279.329C467.964 280.133 467.512 281.223 467.511 282.36V428.604C467.512 429.741 467.964 430.831 468.768 431.635C469.572 432.439 470.662 432.891 471.799 432.892H970.468C971.604 432.891 972.694 432.439 973.498 431.635C974.302 430.831 974.754 429.741 974.755 428.604V282.36C974.754 281.223 974.302 280.133 973.498 279.329C972.694 278.525 971.604 278.073 970.468 278.072L471.799 278.072Z" fill="#E6E6E6"/>
<path d="M478.256 422.147H964.01V288.817H478.256V422.147Z" fill="white"/>
<path d="M902.696 394.487C900.812 394.487 899.006 395.235 897.674 396.567C896.342 397.899 895.593 399.706 895.593 401.59C895.593 403.474 896.342 405.28 897.674 406.612C899.006 407.944 900.812 408.692 902.696 408.692H931.106C932.99 408.692 934.797 407.944 936.129 406.612C937.461 405.28 938.209 403.474 938.209 401.59C938.209 399.706 937.461 397.899 936.129 396.567C934.797 395.235 932.99 394.487 931.106 394.487H902.696Z" fill="#357CE6"/>
<path d="M938.209 380.71H610.244V382.579H938.209V380.71Z" fill="#E6E6E6"/>
<path d="M541.689 396.851C564.536 396.851 583.058 378.33 583.058 355.482C583.058 332.634 564.536 314.113 541.689 314.113C518.841 314.113 500.319 332.634 500.319 355.482C500.319 378.33 518.841 396.851 541.689 396.851Z" fill="#357CE6"/>
<path d="M610.762 370.275L609.725 368.72L643.805 346L667.176 357.218L700.79 335.742L701.245 335.935L767.658 364.266L820.909 338.108L872.617 359.07L937.59 301.523L938.829 302.923L872.989 361.238L820.982 340.154L767.713 366.321L700.966 337.848L667.305 359.353L643.957 348.146L610.762 370.275Z" fill="#282646"/>
<path d="M616.317 395.464C614.706 395.464 613.162 396.104 612.023 397.243C610.884 398.382 610.244 399.927 610.244 401.538C610.244 403.148 610.884 404.693 612.023 405.832C613.162 406.971 614.706 407.611 616.317 407.611H679.855C681.465 407.611 683.01 406.971 684.149 405.832C685.288 404.693 685.928 403.148 685.928 401.538C685.928 399.927 685.288 398.382 684.149 397.243C683.01 396.104 681.465 395.464 679.855 395.464H616.317Z" fill="#E6E6E6"/>
<path d="M541.684 382.747L558.431 359.162L541.684 369.05L524.947 359.162L541.683 382.747H541.684Z" fill="white"/>
<path d="M541.683 365.881H541.684L558.421 355.988L541.684 328.217H541.683L524.947 355.988L541.683 365.881Z" fill="white"/>
</g>
<defs>
<clipPath id="clip0_1_29">
<rect width="974.755" height="674.095" fill="white" transform="translate(0 0.5)"/>
</clipPath>
</defs>
</svg>
