<svg width="577" height="494" viewBox="0 0 577 494" fill="none" xmlns="http://www.w3.org/2000/svg">
<g clip-path="url(#clip0_1_2)">
<path d="M169.422 488.85C178.677 481.03 184.298 468.677 182.824 456.651C181.35 444.625 172.219 433.569 160.375 431.015C148.531 428.462 135.03 435.531 131.432 447.101C129.452 424.795 127.171 401.554 115.312 382.558C104.574 365.358 85.9745 353.051 65.8175 350.849C45.6604 348.647 24.4376 356.963 11.8664 372.873C-0.70481 388.783 -3.78281 411.912 5.02174 430.178C11.5077 443.633 23.4573 453.647 35.9774 461.794C76.4343 487.898 124.957 498.513 172.618 491.687" fill="#F2F2F2"/>
<path d="M31.7994 357.424C48.4314 370.971 63.6896 386.123 77.3532 402.659C98.7366 428.45 116.04 457.366 128.662 488.4C129.585 490.664 125.909 491.65 124.995 489.411C116.969 469.79 107.039 451.002 95.3483 433.318C77.1172 405.692 54.7815 381.007 29.111 360.113C27.213 358.567 29.917 355.891 31.7994 357.424Z" fill="white"/>
<path d="M175.814 488.85C166.56 481.03 160.938 468.677 162.412 456.651C163.887 444.625 173.017 433.569 184.861 431.015C196.705 428.462 210.207 435.531 213.804 447.101C215.784 424.795 218.065 401.554 229.924 382.558C240.663 365.358 259.262 353.051 279.419 350.849C299.576 348.647 320.799 356.963 333.37 372.873C345.941 388.783 349.019 411.912 340.214 430.178C333.728 443.633 321.779 453.647 309.259 461.794C268.802 487.898 220.279 498.513 172.618 491.687" fill="#F2F2F2"/>
<path d="M313.437 357.424C296.805 370.971 281.547 386.123 267.883 402.659C246.5 428.45 229.196 457.366 216.575 488.4C215.651 490.664 219.327 491.65 220.241 489.411C240.891 438.974 273.858 394.519 316.125 360.113C318.023 358.567 315.319 355.891 313.437 357.424Z" fill="white"/>
<path d="M203.277 222.5C220.398 222.5 234.277 208.621 234.277 191.5C234.277 174.379 220.398 160.5 203.277 160.5C186.156 160.5 172.277 174.379 172.277 191.5C172.277 208.621 186.156 222.5 203.277 222.5Z" fill="#F2F2F2"/>
<path d="M107.695 84.6377H321.277V96.323H134.961C124.006 96.323 113.159 98.4806 103.038 102.673C92.9172 106.865 83.7212 113.009 75.9751 120.756C68.229 128.502 62.0844 137.698 57.8922 147.819C53.7 157.939 51.5424 168.787 51.5424 179.741V312.5H28.1719C27.1388 312.5 26.1481 312.09 25.4177 311.359C24.6872 310.629 24.2768 309.638 24.2768 308.605V168.056C24.2768 157.101 26.4345 146.254 30.6266 136.133C34.8188 126.012 40.9634 116.816 48.7095 109.07C56.4557 101.324 65.6517 95.1796 75.7725 90.9875C85.8933 86.7953 96.7407 84.6377 107.695 84.6377Z" fill="#F2F2F2"/>
<path d="M148.777 489.5V312H200.777V489.5C200.775 490.693 200.301 491.837 199.457 492.68C198.614 493.524 197.47 493.999 196.277 494H153.277C152.084 493.999 150.94 493.524 150.096 492.68C149.253 491.837 148.778 490.693 148.777 489.5Z" fill="#203657"/>
<path d="M13.2768 308.5V164.166C13.3027 141.188 22.4419 119.16 38.6891 102.912C54.9364 86.6652 76.965 77.526 99.9421 77.5H320.277V313.5H18.2768C16.9512 313.498 15.6803 312.971 14.743 312.034C13.8056 311.097 13.2783 309.826 13.2768 308.5ZM318.277 79.5H99.9421C77.4952 79.5254 55.975 88.4537 40.1027 104.326C24.2304 120.198 15.3022 141.719 15.2768 164.166V308.5C15.2777 309.295 15.594 310.058 16.1564 310.62C16.7189 311.183 17.4814 311.499 18.2768 311.5H318.277V79.5Z" fill="#203657"/>
<path d="M203.277 207.5C198.505 207.495 193.929 205.596 190.555 202.222C187.18 198.847 185.282 194.272 185.277 189.5V60.5C185.276 59.7046 184.96 58.9421 184.397 58.3796C183.835 57.8172 183.072 57.5009 182.277 57.5H112.277C110.951 57.4985 109.68 56.9712 108.743 56.0338C107.806 55.0965 107.278 53.8256 107.277 52.5V5.5C107.278 4.17439 107.806 2.90351 108.743 1.96616C109.68 1.02881 110.951 0.501535 112.277 0.5H216.277C217.602 0.501517 218.873 1.02879 219.811 1.96614C220.748 2.90349 221.275 4.17438 221.277 5.5V189.5C221.271 194.272 219.373 198.847 215.999 202.222C212.624 205.596 208.049 207.495 203.277 207.5Z" fill="#357CE6"/>
<path d="M328.277 75.5C343.362 75.4684 357.843 81.4308 368.532 92.0757C379.222 102.72 385.245 117.176 385.277 132.261V296.571H497.277C501.776 296.562 506.095 298.34 509.283 301.515C512.471 304.69 514.267 309.001 514.277 313.5H271.277V132.261C271.308 117.176 277.332 102.72 288.021 92.0757C298.711 81.4308 313.191 75.4684 328.277 75.5Z" fill="#203657"/>
<path d="M314.599 169.068L326.402 217.824L557.283 161.932L545.48 113.176C545.337 112.58 545.046 112.029 544.634 111.576C544.222 111.122 543.702 110.78 543.122 110.581C542.694 110.43 542.242 110.362 541.788 110.38L408.329 41.2782C407.547 40.8788 406.648 40.7722 405.794 40.9774C404.94 41.1826 404.188 41.6863 403.673 42.3974L339.353 132.091L315.105 165.914C315.061 165.973 315.03 166.041 315.015 166.113C314.999 166.186 315 166.26 315.016 166.332C314.522 167.154 314.373 168.136 314.599 169.068Z" fill="white"/>
<path d="M315.016 166.332C315.027 166.396 315.051 166.456 315.086 166.51C315.121 166.565 315.166 166.611 315.219 166.648C315.282 166.691 315.352 166.721 315.427 166.735C315.501 166.75 315.578 166.75 315.652 166.734C315.773 166.701 315.879 166.628 315.951 166.526L316.035 166.411L317.297 164.645L340.226 132.681L404.527 43.008C404.894 42.4998 405.431 42.14 406.04 41.9939C406.65 41.8478 407.291 41.9251 407.849 42.2117L540.274 110.778L541.462 111.395C541.511 111.415 541.56 111.433 541.61 111.447C541.699 111.431 541.79 111.422 541.881 111.421C542.006 111.379 542.109 111.292 542.171 111.176C542.203 111.115 542.223 111.049 542.23 110.98C542.236 110.911 542.229 110.842 542.209 110.776C542.188 110.711 542.155 110.649 542.111 110.596C542.067 110.543 542.013 110.499 541.952 110.467L541.788 110.38L408.329 41.2782C407.547 40.8788 406.648 40.7722 405.794 40.9774C404.94 41.1826 404.188 41.6863 403.673 42.3974L339.353 132.091L315.105 165.914C315.061 165.973 315.03 166.041 315.015 166.113C314.999 166.186 315 166.26 315.016 166.332Z" fill="#203657"/>
<path d="M384.357 171.304L389.496 171.874L427.639 176.099L452.925 178.899L454.418 179.065L485.97 154.42L487.179 153.476L494.631 147.656L521.145 126.949L521.304 125.495L530.735 40.3809C530.863 39.2089 530.522 38.0337 529.785 37.113C529.049 36.1924 527.977 35.6013 526.805 35.4694L400.95 21.5276C399.778 21.3996 398.603 21.7413 397.682 22.4777C396.762 23.2142 396.17 24.2854 396.038 25.4568L389.388 85.4944L385.699 118.78L382.399 148.559L380.869 162.388L380.422 166.394C380.295 167.566 380.638 168.741 381.375 169.662C382.113 170.582 383.185 171.172 384.357 171.304Z" fill="#E6E6E6"/>
<path d="M418.942 96.6978L473.459 102.736L492.792 104.877C493.646 104.971 494.51 104.897 495.334 104.657C496.159 104.418 496.929 104.018 497.599 103.482C498.27 102.945 498.828 102.282 499.242 101.529C499.656 100.777 499.917 99.9501 500.012 99.0965C500.107 98.2429 500.032 97.3791 499.793 96.5543C499.553 95.7295 499.154 94.9599 498.617 94.2895C498.081 93.619 497.417 93.0609 496.665 92.6469C495.912 92.2329 495.086 91.9712 494.232 91.8766L470.185 89.2134L420.386 83.6915C418.661 83.501 416.932 84.0031 415.578 85.0872C414.224 86.1714 413.356 87.749 413.164 89.4732C412.973 91.1973 413.474 92.9269 414.557 94.2817C415.641 95.6364 417.218 96.5055 418.942 96.6978Z" fill="white"/>
<path d="M415.838 120.814C415.979 120.839 416.119 120.864 416.263 120.878L479.548 127.889L490.114 129.062C491.839 129.252 493.568 128.75 494.923 127.666C496.277 126.581 497.145 125.003 497.336 123.278C497.527 121.554 497.024 119.824 495.94 118.47C494.855 117.115 493.277 116.247 491.552 116.057L476.274 114.366L426.144 108.812L417.708 107.877C416.02 107.688 414.326 108.164 412.983 109.202C411.64 110.24 410.753 111.76 410.511 113.44C410.268 115.12 410.688 116.829 411.682 118.205C412.676 119.581 414.167 120.517 415.838 120.814Z" fill="white"/>
<path d="M408.675 142.198C409.194 143.059 409.904 143.788 410.751 144.331C411.597 144.873 412.557 145.212 413.556 145.323L439.495 148.196L485.692 153.314L485.702 153.311L487.179 153.476L494.631 147.656C494.678 147.214 494.678 146.768 494.633 146.326C494.475 144.841 493.816 143.455 492.764 142.396C491.712 141.337 490.329 140.668 488.846 140.502L482.428 139.789L456.971 136.972L438.655 134.94L414.994 132.318C413.782 132.184 412.556 132.391 411.455 132.917C410.354 133.443 409.423 134.267 408.765 135.295C408.108 136.322 407.751 137.513 407.735 138.733C407.72 139.953 408.045 141.153 408.675 142.198Z" fill="white"/>
<path d="M445.108 67.2196L458.673 68.7219L464.664 69.3872L473.714 70.3888C475.439 70.5796 477.168 70.0775 478.523 68.9929C479.877 67.9083 480.745 66.3302 480.936 64.6056C481.127 62.881 480.625 61.1513 479.54 59.797C478.455 58.4426 476.877 57.5746 475.153 57.3838L446.553 54.2184C444.829 54.0268 443.1 54.5279 441.745 55.6115C440.391 56.6951 439.522 58.2724 439.33 59.9964C439.139 61.7205 439.64 63.4501 440.723 64.8047C441.807 66.1593 443.384 67.0279 445.108 67.2196Z" fill="white"/>
<path d="M334.193 103.432L350.731 171.746L378.332 176.994L403.864 181.855L431.258 187.067L440.011 188.733C440.523 188.83 441.05 188.816 441.557 188.694C442.064 188.571 442.539 188.342 442.95 188.021L449.972 182.537L454.418 179.065L485.97 154.42L465.908 71.5463C465.71 70.7218 465.278 69.9721 464.664 69.3872C464.126 68.8697 463.465 68.4961 462.745 68.3009C462.024 68.1056 461.265 68.095 460.539 68.27L337.47 98.0627C336.324 98.3409 335.335 99.0626 334.721 100.069C334.106 101.076 333.917 102.285 334.193 103.432Z" fill="#357CE6"/>
<path d="M372.114 157.778C372.523 159.463 373.585 160.917 375.065 161.82C376.545 162.723 378.324 163.002 380.009 162.596L452.224 145.114C453.909 144.704 455.362 143.642 456.265 142.162C457.168 140.682 457.447 138.904 457.042 137.218C457.023 137.135 457 137.053 456.971 136.972C456.51 135.346 455.438 133.963 453.979 133.111C452.52 132.258 450.788 132.004 449.146 132.4L376.932 149.882C375.247 150.292 373.793 151.353 372.889 152.833C371.986 154.314 371.707 156.092 372.114 157.778Z" fill="white"/>
<path d="M378.332 176.994L403.864 181.855L457.948 168.762C459.634 168.354 461.089 167.293 461.993 165.812C462.896 164.331 463.175 162.552 462.766 160.866C462.358 159.18 461.297 157.725 459.816 156.822C458.336 155.918 456.557 155.64 454.871 156.048L382.656 173.53C381.147 173.892 379.818 174.783 378.909 176.041C378.69 176.342 378.497 176.661 378.332 176.994Z" fill="white"/>
<path d="M431.258 187.067L440.01 188.733C440.523 188.83 441.05 188.816 441.557 188.694C442.064 188.571 442.539 188.342 442.95 188.021L449.972 182.537L431.258 187.067Z" fill="white"/>
<path d="M386.664 121.147C387.074 122.832 388.135 124.286 389.616 125.189C391.096 126.092 392.874 126.371 394.56 125.965L422.531 119.194C424.215 118.783 425.668 117.722 426.572 116.242C427.475 114.761 427.754 112.984 427.349 111.298C427.131 110.392 426.72 109.544 426.144 108.812C425.37 107.822 424.328 107.076 423.141 106.662C421.955 106.249 420.674 106.185 419.453 106.48L391.483 113.251C389.797 113.659 388.342 114.72 387.439 116.201C386.535 117.682 386.257 119.461 386.664 121.147Z" fill="white"/>
<path d="M403.862 181.854L431.26 187.068L440.01 188.734C440.522 188.83 441.049 188.816 441.555 188.693C442.062 188.571 442.537 188.342 442.948 188.023L449.975 182.537L447.509 183.134L442.304 187.195C442.01 187.423 441.671 187.587 441.309 187.674C440.947 187.762 440.571 187.772 440.205 187.703L433.726 186.471L406.328 181.257L403.862 181.854ZM485.7 153.315L485.966 154.417L487.181 153.472L485.7 153.315ZM403.862 181.854L431.26 187.068L440.01 188.734C440.522 188.83 441.049 188.816 441.555 188.693C442.062 188.571 442.537 188.342 442.948 188.023L449.975 182.537L447.509 183.134L442.304 187.195C442.01 187.423 441.671 187.587 441.309 187.674C440.947 187.762 440.571 187.772 440.205 187.703L433.726 186.471L406.328 181.257L403.862 181.854ZM403.862 181.854L431.26 187.068L440.01 188.734C440.522 188.83 441.049 188.816 441.555 188.693C442.062 188.571 442.537 188.342 442.948 188.023L449.975 182.537L447.509 183.134L442.304 187.195C442.01 187.423 441.671 187.587 441.309 187.674C440.947 187.762 440.571 187.772 440.205 187.703L433.726 186.471L406.328 181.257L403.862 181.854ZM314.599 169.067L345.515 296.778C345.744 297.721 346.339 298.536 347.168 299.041C347.997 299.547 348.993 299.704 349.937 299.476L573.698 245.308C574.641 245.079 575.456 244.484 575.961 243.655C576.467 242.826 576.624 241.83 576.396 240.886L545.48 113.176C545.337 112.58 545.046 112.029 544.634 111.576C544.222 111.122 543.702 110.78 543.122 110.581C542.694 110.43 542.242 110.362 541.788 110.38C541.26 110.395 540.742 110.532 540.274 110.778C540.058 110.881 539.854 111.007 539.667 111.155L521.303 125.495L494.633 146.329L485.698 153.308L485.7 153.315L485.692 153.317L452.926 178.895L447.509 183.134L442.304 187.195C442.01 187.423 441.671 187.587 441.309 187.674C440.947 187.762 440.571 187.772 440.205 187.703L433.726 186.471L406.328 181.257L378.906 176.042L318.844 164.612C318.332 164.51 317.804 164.522 317.297 164.645C316.614 164.812 315.993 165.172 315.509 165.681C315.323 165.881 315.158 166.099 315.016 166.332C314.522 167.154 314.373 168.136 314.599 169.067ZM403.862 181.854L431.26 187.068L440.01 188.734C440.522 188.83 441.049 188.816 441.555 188.693C442.062 188.571 442.537 188.342 442.948 188.023L449.975 182.537L447.509 183.134L442.304 187.195C442.01 187.423 441.671 187.587 441.309 187.674C440.947 187.762 440.571 187.772 440.205 187.703L433.726 186.471L406.328 181.257L403.862 181.854ZM403.862 181.854L431.26 187.068L440.01 188.734C440.522 188.83 441.049 188.816 441.555 188.693C442.062 188.571 442.537 188.342 442.948 188.023L449.975 182.537L447.509 183.134L442.304 187.195C442.01 187.423 441.671 187.587 441.309 187.674C440.947 187.762 440.571 187.772 440.205 187.703L433.726 186.471L406.328 181.257L403.862 181.854ZM403.862 181.854L431.26 187.068L440.01 188.734C440.522 188.83 441.049 188.816 441.555 188.693C442.062 188.571 442.537 188.342 442.948 188.023L449.975 182.537L447.509 183.134L442.304 187.195C442.01 187.423 441.671 187.587 441.309 187.674C440.947 187.762 440.571 187.772 440.205 187.703L433.726 186.471L406.328 181.257L403.862 181.854Z" fill="white"/>
<path d="M403.862 181.854L431.26 187.068L440.01 188.734C440.522 188.83 441.049 188.816 441.555 188.693C442.062 188.571 442.537 188.342 442.948 188.023L449.975 182.537L447.509 183.134L442.304 187.195C442.01 187.423 441.671 187.587 441.309 187.674C440.947 187.762 440.571 187.772 440.205 187.703L433.726 186.471L406.328 181.257L403.862 181.854ZM485.7 153.315L485.966 154.417L487.181 153.472L485.7 153.315ZM403.862 181.854L431.26 187.068L440.01 188.734C440.522 188.83 441.049 188.816 441.555 188.693C442.062 188.571 442.537 188.342 442.948 188.023L449.975 182.537L447.509 183.134L442.304 187.195C442.01 187.423 441.671 187.587 441.309 187.674C440.947 187.762 440.571 187.772 440.205 187.703L433.726 186.471L406.328 181.257L403.862 181.854ZM403.862 181.854L431.26 187.068L440.01 188.734C440.522 188.83 441.049 188.816 441.555 188.693C442.062 188.571 442.537 188.342 442.948 188.023L449.975 182.537L447.509 183.134L442.304 187.195C442.01 187.423 441.671 187.587 441.309 187.674C440.947 187.762 440.571 187.772 440.205 187.703L433.726 186.471L406.328 181.257L403.862 181.854ZM316.035 166.411L316.17 166.513C316.193 166.476 316.233 166.442 316.263 166.403C316.566 166.088 316.942 165.853 317.359 165.719C317.775 165.585 318.218 165.556 318.648 165.636L378.334 176.99L403.862 181.854L431.26 187.068L440.01 188.734C440.522 188.83 441.049 188.816 441.555 188.693C442.062 188.571 442.537 188.342 442.948 188.023L449.975 182.537L447.509 183.134L442.304 187.195C442.01 187.423 441.671 187.587 441.309 187.674C440.947 187.762 440.571 187.772 440.205 187.703L433.726 186.471L406.328 181.257L378.906 176.042L318.844 164.612C318.332 164.51 317.804 164.522 317.297 164.645L316.035 166.411ZM314.599 169.067L345.515 296.778C345.744 297.721 346.339 298.536 347.168 299.041C347.997 299.547 348.993 299.704 349.937 299.476L573.698 245.308C574.641 245.079 575.456 244.484 575.961 243.655C576.467 242.826 576.624 241.83 576.396 240.886L545.48 113.176C545.337 112.58 545.046 112.029 544.634 111.576C544.222 111.122 543.702 110.78 543.122 110.581C542.694 110.43 542.242 110.362 541.788 110.38C541.26 110.395 540.742 110.532 540.274 110.778C540.058 110.881 539.854 111.007 539.667 111.155L521.303 125.495L494.633 146.329L485.698 153.308L485.7 153.315L485.692 153.317L452.926 178.895L447.509 183.134L442.304 187.195C442.01 187.423 441.671 187.587 441.309 187.674C440.947 187.762 440.571 187.772 440.205 187.703L433.726 186.471L406.328 181.257L378.906 176.042L318.844 164.612C318.332 164.51 317.804 164.522 317.297 164.645C316.614 164.812 315.993 165.172 315.509 165.681C315.323 165.881 315.158 166.099 315.016 166.332C314.522 167.154 314.373 168.136 314.599 169.067ZM315.618 168.821C315.527 168.444 315.521 168.052 315.601 167.673C315.681 167.294 315.844 166.938 316.08 166.63C316.101 166.585 316.132 166.545 316.17 166.513C316.193 166.476 316.233 166.442 316.263 166.403C316.566 166.088 316.942 165.853 317.359 165.719C317.775 165.585 318.218 165.556 318.648 165.636L378.334 176.99L403.862 181.854L431.26 187.068L440.01 188.734C440.522 188.83 441.049 188.816 441.555 188.693C442.062 188.571 442.537 188.342 442.948 188.023L449.975 182.537L454.419 179.065L485.966 154.417L487.181 153.472L494.628 147.655L521.146 126.945L540.317 111.974C540.609 111.747 540.945 111.584 541.305 111.497C541.405 111.472 541.507 111.456 541.61 111.447C541.699 111.43 541.79 111.422 541.881 111.421C542.188 111.418 542.492 111.468 542.782 111.568C543.195 111.712 543.566 111.957 543.86 112.28C544.155 112.604 544.364 112.996 544.468 113.421L575.384 241.131C575.465 241.466 575.48 241.813 575.427 242.153C575.374 242.494 575.254 242.82 575.075 243.114C574.895 243.408 574.66 243.664 574.381 243.867C574.103 244.07 573.787 244.216 573.453 244.296L349.692 298.464C349.017 298.626 348.305 298.514 347.713 298.151C347.121 297.789 346.697 297.206 346.534 296.531L315.618 168.821ZM403.862 181.854L431.26 187.068L440.01 188.734C440.522 188.83 441.049 188.816 441.555 188.693C442.062 188.571 442.537 188.342 442.948 188.023L449.975 182.537L447.509 183.134L442.304 187.195C442.01 187.423 441.671 187.587 441.309 187.674C440.947 187.762 440.571 187.772 440.205 187.703L433.726 186.471L406.328 181.257L403.862 181.854ZM403.862 181.854L431.26 187.068L440.01 188.734C440.522 188.83 441.049 188.816 441.555 188.693C442.062 188.571 442.537 188.342 442.948 188.023L449.975 182.537L447.509 183.134L442.304 187.195C442.01 187.423 441.671 187.587 441.309 187.674C440.947 187.762 440.571 187.772 440.205 187.703L433.726 186.471L406.328 181.257L403.862 181.854ZM403.862 181.854L431.26 187.068L440.01 188.734C440.522 188.83 441.049 188.816 441.555 188.693C442.062 188.571 442.537 188.342 442.948 188.023L449.975 182.537L447.509 183.134L442.304 187.195C442.01 187.423 441.671 187.587 441.309 187.674C440.947 187.762 440.571 187.772 440.205 187.703L433.726 186.471L406.328 181.257L403.862 181.854Z" fill="#203657"/>
<path d="M515.379 220.217C514.875 218.125 515.221 215.918 516.342 214.08C517.464 212.243 519.268 210.925 521.36 210.416L549.601 203.579C551.691 203.081 553.893 203.432 555.725 204.554C557.557 205.676 558.869 207.479 559.375 209.567C559.88 211.655 559.537 213.858 558.422 215.694C557.306 217.53 555.508 218.849 553.422 219.361L525.18 226.198C523.087 226.702 520.88 226.356 519.043 225.234C517.205 224.113 515.888 222.309 515.379 220.217Z" fill="#357CE6"/>
<path d="M203.277 196.5C207.143 196.5 210.277 193.366 210.277 189.5C210.277 185.634 207.143 182.5 203.277 182.5C199.411 182.5 196.277 185.634 196.277 189.5C196.277 193.366 199.411 196.5 203.277 196.5Z" fill="white"/>
</g>
<defs>
<clipPath id="clip0_1_2">
<rect width="576.499" height="493.5" fill="white" transform="translate(0 0.5)"/>
</clipPath>
</defs>
</svg>
