<svg xmlns="http://www.w3.org/2000/svg" xml:space="preserve" viewBox="0 0 165 165"><g style="display:inline" transform="translate(-16.41 -16.46)"><g style="display:inline"><linearGradient id="a" x1="189.861" x2="51.316" y1="183.753" y2="18.641" gradientUnits="userSpaceOnUse"><stop offset=".139" style="stop-color:#53555f"/><stop offset=".172" style="stop-color:#5a5c66"/><stop offset=".22" style="stop-color:#6f717a"/><stop offset=".278" style="stop-color:#91929a"/><stop offset=".344" style="stop-color:#bfc0c6"/><stop offset=".357" style="stop-color:#c9cad0"/><stop offset=".371" style="stop-color:#d7d7db"/><stop offset=".394" style="stop-color:#e4e5e6"/><stop offset=".422" style="stop-color:#ededed"/><stop offset=".47" style="stop-color:#efefef"/><stop offset=".634" style="stop-color:#c2c3ca"/><stop offset=".791" style="stop-color:#9da0ad"/><stop offset=".919" style="stop-color:#878a9b"/><stop offset="1" style="stop-color:#7f8294"/></linearGradient><path d="m108.43 83.24 17.46-10.08-61.56-35.54L46.87 47.7z" style="fill:url(#a)"/><linearGradient id="b" x1="170.053" x2="45.033" y1="182.355" y2="33.362" gradientUnits="userSpaceOnUse"><stop offset=".139" style="stop-color:#53555f"/><stop offset=".172" style="stop-color:#5a5c66"/><stop offset=".22" style="stop-color:#6f717a"/><stop offset=".278" style="stop-color:#91929a"/><stop offset=".344" style="stop-color:#bfc0c6"/><stop offset=".357" style="stop-color:#c9cad0"/><stop offset=".371" style="stop-color:#d7d7db"/><stop offset=".394" style="stop-color:#e4e5e6"/><stop offset=".422" style="stop-color:#ededed"/><stop offset=".47" style="stop-color:#efefef"/><stop offset=".634" style="stop-color:#c2c3ca"/><stop offset=".791" style="stop-color:#9da0ad"/><stop offset=".919" style="stop-color:#878a9b"/><stop offset="1" style="stop-color:#7f8294"/></linearGradient><path d="m134.17 87.49-17.46 10.08v73.3l17.46-10.08z" style="fill:url(#b)"/><linearGradient id="c" x1="206.215" x2="76.332" y1="158.9" y2="4.112" gradientUnits="userSpaceOnUse"><stop offset=".139" style="stop-color:#53555f"/><stop offset=".172" style="stop-color:#5a5c66"/><stop offset=".22" style="stop-color:#6f717a"/><stop offset=".278" style="stop-color:#91929a"/><stop offset=".344" style="stop-color:#bfc0c6"/><stop offset=".357" style="stop-color:#c9cad0"/><stop offset=".371" style="stop-color:#d7d7db"/><stop offset=".394" style="stop-color:#e4e5e6"/><stop offset=".422" style="stop-color:#ededed"/><stop offset=".47" style="stop-color:#efefef"/><stop offset=".634" style="stop-color:#c2c3ca"/><stop offset=".791" style="stop-color:#9da0ad"/><stop offset=".919" style="stop-color:#878a9b"/><stop offset="1" style="stop-color:#7f8294"/></linearGradient><path d="M151.62 67.86v82.85l17.46-10.08V57.78L99.25 17.46 81.79 27.54z" style="fill:url(#c)"/></g><path d="M29.41 57.78v82.85l69.84 40.32V98.1Zm42.12 65.76 3.76 28.06-21.9-12.65 3.75-23.55c-2.97-4.33-4.89-9.79-4.89-14.52 0-7.93 5.42-11.22 12.1-7.37 6.68 3.86 12.1 13.41 12.1 21.33-.02 4.74-1.96 7.8-4.92 8.7" style="fill:#e21438"/><linearGradient id="d" x1="63.252" x2="58.475" y1="135.128" y2="123.876" gradientUnits="userSpaceOnUse"><stop offset=".011" style="stop-color:#c9cad0"/><stop offset=".536" style="stop-color:#a4a6b2"/><stop offset="1" style="stop-color:#7f8294"/></linearGradient><path d="m57.13 115.4-3.75 23.55 7.48-4.47 3.69-23.38z" style="fill:url(#d)"/><radialGradient id="e" cx="57.838" cy="148.303" r="14.387" gradientUnits="userSpaceOnUse"><stop offset=".446" style="stop-color:#fff"/><stop offset=".536" style="stop-color:#f6f7f8"/><stop offset="1" style="stop-color:#cbcfd8"/></radialGradient><path d="m53.38 138.95 21.9 12.65-1.27-9.53-13.15-7.59z" style="fill:url(#e)"/><linearGradient id="f" x1="64.807" x2="54.372" y1="114.222" y2="96.147" gradientUnits="userSpaceOnUse"><stop offset="0" style="stop-color:#7f8294"/><stop offset=".062" style="stop-color:#9194a3"/><stop offset=".387" style="stop-color:#efefef"/><stop offset=".497" style="stop-color:#ededed"/><stop offset=".56" style="stop-color:#e4e5e6"/><stop offset=".61" style="stop-color:#d7d7db"/><stop offset=".643" style="stop-color:#c9cad0"/><stop offset=".686" style="stop-color:#acadb4"/><stop offset=".752" style="stop-color:#85878f"/><stop offset=".818" style="stop-color:#666972"/><stop offset=".882" style="stop-color:#51535d"/><stop offset=".943" style="stop-color:#434650"/><stop offset="1" style="stop-color:#3f424c"/></linearGradient><path d="m57.13 115.4 7.42-4.31c-2.97-4.33-4.9-9.62-4.9-14.35 0-1.83.3-3.39.82-4.7-4.78-.85-8.23 2.51-8.23 8.83 0 4.74 1.92 10.2 4.89 14.53" style="fill:url(#f)"/></g></svg>
