<svg xmlns="http://www.w3.org/2000/svg" viewBox="0 0 507.83 470.86">
  <path d="M482.09.5 284.32 147.38l36.58-86.88z" fill="#e2761b" stroke="#e2761b" stroke-linecap="round" stroke-linejoin="round"/>
  <path d="m25.54.5 196.01 148.64-34.82-88.64zM411.59 340.02l-52.62 80.64 112.56 30.99 32.37-109.87zM3.89 341.78l32.18 109.87 112.56-30.99-52.62-80.64z" fill="#e4761b" stroke="#e4761b" stroke-linecap="round" stroke-linejoin="round"/>
  <path d="m143.21 204.62-31.41 47.51 111.98 4.96-3.91-120.47zM364.42 204.62l-77.04-69.77-2.53 122.24 111.79-4.96zM148.63 420.66l67.24-32.75-58.09-45.35zM291.77 387.91l67.44 32.75-9.35-78.1z" fill="#e4761b" stroke="#e4761b" stroke-linecap="round" stroke-linejoin="round"/>
  <path d="m359.21 420.66-67.44-32.75 5.35 43.97-.58 18.53zM148.63 420.66l62.67 29.75-.39-18.53 4.97-43.97z" fill="#d7c1b3" stroke="#d7c1b3" stroke-linecap="round" stroke-linejoin="round"/>
  <path d="m212.07 314.48-56.13-16.51 39.62-18.15zM295.56 314.48l16.51-34.66 39.81 18.15z" fill="#233447" stroke="#233447" stroke-linecap="round" stroke-linejoin="round"/>
  <path d="m148.63 420.66 9.54-80.64-62.16 1.76zM349.67 340.02l9.54 80.64 52.62-78.87zM395.83 252.13l-111.79 4.96 10.31 57.39 16.51-34.66 39.81 18.15zM155.94 297.97l39.62-18.15 16.51 34.66 10.51-57.39-112.17-4.96z" fill="#cd6116" stroke="#cd6116" stroke-linecap="round" stroke-linejoin="round"/>
  <path d="m110.41 252.13 47.12 91.66-1.59-45.82zM351.69 297.97l-1.96 45.82 47.51-91.66zM222.58 257.09l-10.51 57.39 13.07 67.44 2.92-88.83zM284.04 257.09l-5.16 35.81 2.33 89.02 13.27-67.44z" fill="#e4751f" stroke="#e4751f" stroke-linecap="round" stroke-linejoin="round"/>
  <path d="m294.35 314.48-13.27 67.44 9.54 6.51 58.09-45.35 1.96-45.82zM155.94 297.97l1.59 45.82 58.09 45.35 9.35-6.51-13.07-67.44z" fill="#f6851b" stroke="#f6851b" stroke-linecap="round" stroke-linejoin="round"/>
  <path d="m295.14 450.41.58-18.53-4.97-4.39h-73.67l-4.58 4.39.39 18.53-62.67-29.75 21.86 17.95 44.4 30.8h74.83l44.59-30.8 21.86-17.95z" fill="#c0ad9e" stroke="#c0ad9e" stroke-linecap="round" stroke-linejoin="round"/>
  <path d="m291.77 387.91-9.54-6.51h-56.63l-9.35 6.51-4.97 43.97 4.58-4.39h73.67l4.97 4.39z" fill="#161616" stroke="#161616" stroke-linecap="round" stroke-linejoin="round"/>
  <path d="m490.44 156.92 16.71-81.02L482.09.5 291.77 142.23l72.65 62.39 102.71 30.03 22.63-26.51-9.93-7.09 15.74-14.31-12.11-9.35 15.74-11.88zM.5 75.9l16.9 81.02-10.7 7.88 15.55 11.88-11.92 9.35 15.55 14.31-9.73 7.09 22.63 26.51L141.49 204.62l72.65-62.39L25.54.5z" fill="#763d16" stroke="#763d16" stroke-linecap="round" stroke-linejoin="round"/>
  <path d="m467.13 234.65-102.71-30.03 31.41 47.51-47.51 91.66 62.55-.78h93.52zM143.21 204.62l-102.71 30.03-34.61 107.13h93.33l62.55.78-47.12-91.66zM284.04 257.09l6.51-113.09 30.22-81.4H186.87l29.83 81.4 6.9 113.09 2.33 36 .38 88.83h56.63l.58-88.83z" fill="#f6851b" stroke="#f6851b" stroke-linecap="round" stroke-linejoin="round"/>
</svg>
