<svg width="857" height="857" viewBox="0 0 857 857" fill="none" xmlns="http://www.w3.org/2000/svg">
<circle cx="428.5" cy="428.5" r="428.5" fill="#E9ECEF"/>
<path d="M857 428.5C857 665.154 665.154 857 428.5 857C191.846 857 -6.10352e-05 665.154 -6.10352e-05 428.5H428.5H857Z" fill="#F8F9FA"/>
<path d="M18.3884 369.136C18.3884 369.136 -32.6114 241.636 91.3886 177.636C215.389 113.636 359.388 183.136 359.388 183.136C359.388 183.136 479.563 240.636 539.889 265.636C600.215 290.636 639.889 225.636 639.889 225.636C639.889 225.636 577.889 189.636 574.889 134.136C571.889 78.6364 591.889 46.6364 601.389 49.1364C610.889 51.6364 609.889 67.6364 624.889 81.1364C639.889 94.6364 669.389 102.136 682.889 115.136C696.389 128.136 696.389 156.136 696.389 156.136C696.389 156.136 721.389 128.136 749.389 128.136C777.389 128.136 782.889 134.136 796.389 134.136C809.889 134.136 832.889 115.136 841.389 121.636C849.889 128.136 848.389 150.636 841.389 169.136C834.389 187.636 814.889 208.636 802.389 221.136C789.889 233.636 766.889 241.136 749.389 247.136C731.889 253.136 706.889 247.136 706.889 247.136C706.889 247.136 681.389 361.136 628.389 411.136C575.389 461.136 523.389 477.136 523.389 477.136C523.389 477.136 532.889 493.636 527.389 498.636C521.889 503.636 499.889 505.136 486.889 503.636C473.889 502.136 462.389 494.636 445.389 494.636C428.389 494.636 384.389 518.636 327.889 525.136C271.389 531.636 217.888 525.136 217.888 525.136C217.888 525.136 203.389 542.136 184.389 550.136C165.389 558.136 147.389 558.636 138.388 556.636C129.388 554.636 113.889 551.136 111.888 542.136C109.888 533.136 131.888 500.136 131.888 500.136C131.888 500.136 75.8886 463.136 53.3886 437.136C30.8886 411.136 18.3884 369.136 18.3884 369.136Z" fill="#357CE6"/>
<path d="M18.3884 369.136C18.3884 369.136 -32.6114 241.636 91.3886 177.636C215.389 113.636 359.388 183.136 359.388 183.136C359.388 183.136 479.563 240.636 539.889 265.636C600.215 290.636 639.889 225.636 639.889 225.636C639.889 225.636 577.889 189.636 574.889 134.136C571.889 78.6364 591.889 46.6364 601.389 49.1364C610.889 51.6364 609.889 67.6364 624.889 81.1364C639.889 94.6364 669.389 102.136 682.889 115.136C696.389 128.136 696.389 156.136 696.389 156.136C696.389 156.136 721.389 128.136 749.389 128.136C777.389 128.136 782.889 134.136 796.389 134.136C809.889 134.136 832.889 115.136 841.389 121.636C849.889 128.136 848.389 150.636 841.389 169.136C834.389 187.636 814.889 208.636 802.389 221.136C789.889 233.636 766.889 241.136 749.389 247.136C731.889 253.136 706.889 247.136 706.889 247.136C706.889 247.136 681.389 361.136 628.389 411.136C575.389 461.136 523.389 477.136 523.389 477.136M18.3884 369.136C18.3884 369.136 30.8886 411.136 53.3886 437.136C75.8886 463.136 131.888 500.136 131.888 500.136M18.3884 369.136C18.3884 369.136 52.3879 383.636 138.388 387.636C224.389 391.636 270.389 369.136 270.389 369.136M523.389 477.136C523.389 477.136 532.889 493.636 527.389 498.636C521.889 503.636 499.889 505.136 486.889 503.636C473.889 502.136 462.389 494.636 445.389 494.636M523.389 477.136C523.389 477.136 508.889 435.636 486.889 411.136C464.889 386.636 431.389 382.136 431.389 382.136M445.389 494.636C428.389 494.636 384.389 518.636 327.889 525.136C271.389 531.636 217.888 525.136 217.888 525.136M445.389 494.636C445.389 494.636 422.889 488.636 397.889 451.136C372.889 413.636 381.389 398.136 381.389 398.136M217.888 525.136C217.888 525.136 203.389 542.136 184.389 550.136C165.389 558.136 147.389 558.636 138.388 556.636C129.388 554.636 113.889 551.136 111.888 542.136C109.888 533.136 131.888 500.136 131.888 500.136M217.888 525.136C177.799 523.524 159.029 517.97 131.888 500.136" stroke="#1C334D" stroke-width="10"/>
<path d="M372.889 432.136C312.889 419.636 259.389 376.136 259.389 376.136L150.889 388.136L26.3886 376.136C26.3886 376.136 33.3886 432.136 95.3886 472.636C157.389 513.136 203.389 539.636 298.889 525.636C340.094 519.596 400.803 501.812 438.889 497.636C489.072 492.135 511.389 501.136 511.389 501.136L604.389 432.136L671.389 356.636L696.389 274.636C696.389 274.636 663.389 334.136 609.389 372.136C555.389 410.136 532.889 415.636 499.889 421.636C466.889 427.636 432.889 444.636 372.889 432.136Z" fill="white"/>
<path d="M233.889 380.136C233.889 380.136 247.389 477.636 437.889 491.636" stroke="#396AB4" stroke-width="10"/>
<path d="M202.389 387.636C202.389 387.636 222.389 508.636 389.889 511.636" stroke="#396AB4" stroke-width="10"/>
<path d="M160.389 387.136C160.389 387.136 170.389 518.636 301.889 528.136" stroke="#396AB4" stroke-width="10"/>
<path d="M113.389 388.136C113.389 388.136 114.389 518.636 245.889 528.136" stroke="#396AB4" stroke-width="10"/>
<path d="M73.3886 381.636C73.3886 381.636 67.8886 509.136 198.389 519.136" stroke="#396AB4" stroke-width="10"/>
<path d="M441.889 493.136C493.389 511.636 530.889 496.136 530.889 496.136C530.889 496.136 522.889 464.636 496.389 423.636C469.889 382.636 435.889 382.636 435.889 382.636L378.389 405.136C378.389 405.136 390.389 474.636 441.889 493.136Z" fill="#357CE6"/>
<path d="M29 371.5C-54 98 354 134 493 246" stroke="white" stroke-opacity="0.25" stroke-width="10"/>
<path d="M18.3884 369.136C18.3884 369.136 -32.6114 241.636 91.3886 177.636C215.389 113.636 359.388 183.136 359.388 183.136C359.388 183.136 479.563 240.636 539.889 265.636C600.215 290.636 639.889 225.636 639.889 225.636C639.889 225.636 577.889 189.636 574.889 134.136C571.889 78.6364 591.889 46.6364 601.389 49.1364C610.889 51.6364 609.889 67.6364 624.889 81.1364C639.889 94.6364 669.389 102.136 682.889 115.136C696.389 128.136 696.389 156.136 696.389 156.136C696.389 156.136 721.389 128.136 749.389 128.136C777.389 128.136 782.889 134.136 796.389 134.136C809.889 134.136 832.889 115.136 841.389 121.636C849.889 128.136 848.389 150.636 841.389 169.136C834.389 187.636 814.889 208.636 802.389 221.136C789.889 233.636 766.889 241.136 749.389 247.136C731.889 253.136 706.889 247.136 706.889 247.136C706.889 247.136 681.389 361.136 628.389 411.136C575.389 461.136 523.389 477.136 523.389 477.136M18.3884 369.136C18.3884 369.136 30.8886 411.136 53.3886 437.136C75.8886 463.136 131.888 500.136 131.888 500.136M18.3884 369.136C18.3884 369.136 52.3879 383.636 138.388 387.636C224.389 391.636 270.389 369.136 270.389 369.136M523.389 477.136C523.389 477.136 532.889 493.636 527.389 498.636C521.889 503.636 499.889 505.136 486.889 503.636C473.889 502.136 462.389 494.636 445.389 494.636M523.389 477.136C523.389 477.136 508.889 435.636 486.889 411.136C464.889 386.636 431.389 382.136 431.389 382.136M445.389 494.636C428.389 494.636 384.389 518.636 327.889 525.136C271.389 531.636 217.888 525.136 217.888 525.136M445.389 494.636C445.389 494.636 422.889 488.636 397.889 451.136C372.889 413.636 381.389 398.136 381.389 398.136M217.888 525.136C217.888 525.136 203.389 542.136 184.389 550.136C165.389 558.136 147.389 558.636 138.388 556.636C129.388 554.636 113.889 551.136 111.888 542.136C109.888 533.136 131.888 500.136 131.888 500.136M217.888 525.136C177.799 523.524 159.029 517.97 131.888 500.136" stroke="#273445" stroke-width="10"/>
<mask id="mask0_3_39" style="mask-type:alpha" maskUnits="userSpaceOnUse" x="261" y="292" width="100" height="81">
<rect x="276.553" y="292.842" width="87" height="59" transform="rotate(15.0677 276.553 292.842)" fill="#D9D9D9"/>
</mask>
<g mask="url(#mask0_3_39)">
<circle cx="310.889" cy="325.636" r="34.5" fill="white"/>
</g>
<circle cx="312.389" cy="320.136" r="28" fill="#172540"/>
<ellipse cx="302.777" cy="310.04" rx="9" ry="7" transform="rotate(-35.1279 302.777 310.04)" fill="white"/>
<circle cx="363.389" cy="361.136" r="16" fill="#FBAB9B"/>
<path d="M397.951 516.324V521.324H402.951H549.451C577.821 521.324 599.389 542.892 599.389 571.261V699.449C599.389 727.819 577.821 749.386 549.451 749.386H366.326C337.956 749.386 316.389 727.819 316.389 699.449V571.261C316.389 542.892 337.956 521.324 366.326 521.324H371.326V516.324V479.699C371.326 431.185 409.375 393.136 457.889 393.136C480.459 393.136 502.848 401.819 518.266 418.95L518.354 419.048L518.447 419.141C528.885 429.579 537.486 443.412 540.908 458.809L540.996 459.204L541.146 459.581C542.262 462.37 541.817 465.747 539.92 468.851C538.006 471.983 534.985 474.197 531.989 474.796C528.672 475.459 524.837 474.802 521.664 473.039C518.501 471.282 516.46 468.711 515.898 465.9L515.808 465.449L515.637 465.023L515.492 464.66C511.935 455.766 507.96 445.825 499.958 437.785C477.74 413.638 439.709 413.895 415.897 437.707C404.035 449.569 397.951 463.636 397.951 479.699V516.324ZM481.201 662.824V639.257L481.568 638.891C494.708 625.751 492.522 604.168 479.577 593.205C466.212 580.016 446.642 582.762 434.209 595.195C421.381 608.023 423.365 626.661 434.576 639.175V662.824C434.576 669.454 436.808 675.367 441.077 679.636C445.345 683.905 451.259 686.136 457.889 686.136C464.519 686.136 470.432 683.905 474.701 679.636C478.969 675.367 481.201 669.454 481.201 662.824Z" fill="#357CE6" stroke="#273445" stroke-width="10"/>
</svg>
