<?xml version="1.0" encoding="UTF-8" standalone="no"?>
<svg
   version="1.0"
   width="751px"
   height="751px"
   viewBox="0 0 751 751"
   preserveAspectRatio="xMidYMid meet"
   id="svg8"
   sodipodi:docname="light_keeper.svg"
   inkscape:version="1.3.2 (091e20e, 2023-11-25)"
   inkscape:export-filename="light_keeper.png"
   inkscape:export-xdpi="16.362185"
   inkscape:export-ydpi="16.362185"
   xmlns:inkscape="http://www.inkscape.org/namespaces/inkscape"
   xmlns:sodipodi="http://sodipodi.sourceforge.net/DTD/sodipodi-0.dtd"
   xmlns="http://www.w3.org/2000/svg"
   xmlns:svg="http://www.w3.org/2000/svg">
  <defs
     id="defs8" />
  <sodipodi:namedview
     id="namedview8"
     pagecolor="#ffffff"
     bordercolor="#666666"
     borderopacity="1.0"
     inkscape:showpageshadow="2"
     inkscape:pageopacity="0.0"
     inkscape:pagecheckerboard="0"
     inkscape:deskcolor="#d1d1d1"
     inkscape:zoom="0.66072664"
     inkscape:cx="334.48023"
     inkscape:cy="386.69547"
     inkscape:window-width="1392"
     inkscape:window-height="794"
     inkscape:window-x="0"
     inkscape:window-y="25"
     inkscape:window-maximized="0"
     inkscape:current-layer="svg8"
     inkscape:export-bgcolor="#ffffff00" />
  <g
     fill="#f7c737"
     id="g2">
    <path
       d="M354.23 648.32 c-66.23 -5.06 -118.59 -26.26 -156.21 -63.15 -12.61 -12.32 -23.40 -27.43 -31.90 -44.81 -8.95 -18.26 -12.83 -32.27 -14.45 -52.44 -1.98 -25.82 2.71 -51.34 13.64 -73.93 11.81 -24.28 33.08 -47.38 56.69 -61.53 13.64 -8.14 30.14 -14.45 46.50 -17.75 8.80 -1.76 11.59 -1.98 26.33 -2.05 14.52 -0.07 17.45 0.15 24.79 1.61 17.82 3.59 35.06 10.85 49.87 20.90 4.55 3.08 8.43 5.65 8.65 5.65 0.22 0 4.11 -2.42 8.58 -5.43 15.62 -10.34 27.14 -15.47 44 -19.51 11.81 -2.86 19.07 -3.67 32.20 -3.67 38.65 0 74.95 16.21 103.70 46.35 17.89 18.63 30.80 43.78 36.30 70.63 1.91 9.46 2.71 35.35 1.39 46.57 -5.87 50.75 -42.54 98.57 -96.30 125.48 -26.99 13.57 -56.40 21.86 -91.82 25.96 -12.03 1.39 -49.21 2.05 -61.97 1.10z m38.72 -53.61 c7.92 -1.83 15.77 -5.13 22.37 -9.46 9.97 -6.45 19.58 -16.87 19.58 -21.12 0 -2.42 -2.42 -5.65 -5.06 -6.67 -2.86 -1.25 -5.57 0.22 -9.68 5.06 -6.01 7.11 -15.33 12.83 -25.52 15.55 -8.21 2.20 -24.57 2.20 -32.56 0 -10.41 -2.93 -19.95 -8.87 -26.11 -16.13 -3.89 -4.69 -6.45 -5.79 -9.53 -4.25 -2.71 1.47 -4.62 4.18 -4.62 6.67 0 6.53 17.31 21.49 30.95 26.70 14.89 5.79 26.48 6.82 40.19 3.67z m-121.89 -66.01 c13.57 -2.49 25.60 -11.81 31.90 -24.50 3.89 -7.99 5.35 -14.01 5.35 -22 -0.07 -12.91 -4.62 -23.69 -13.86 -33.08 -6.89 -6.97 -13.79 -10.71 -23.10 -12.54 -5.35 -1.10 -6.38 -1.10 -11.88 0 -7.77 1.54 -16.50 5.79 -22.15 10.93 -12.39 11.07 -18.41 29.70 -14.52 45.10 4.11 16.13 14.01 27.87 28.24 33.52 8.36 3.30 12.83 3.89 20.02 2.57z m231.53 -1.32 c14.89 -5.13 25.38 -15.91 30.44 -31.46 6.01 -18.55 -2.13 -41.44 -18.77 -52.51 -5.28 -3.45 -13.49 -6.60 -19.58 -7.41 -9.31 -1.17 -23.40 4.40 -31.76 12.69 -19.22 18.92 -19.58 48.11 -0.95 66.89 6.89 6.89 15.84 11.73 25.01 13.49 3.37 0.59 11.37 -0.29 15.62 -1.69z"
       id="path2" />
  </g>
  <g
     fill="#000000"
     id="g6"
     inkscape:export-filename="./g6.png"
     inkscape:export-xdpi="100"
     inkscape:export-ydpi="100">
    <path
       d="M364.13 659.99 c-54.27 -2.49 -104.22 -17.23 -141.47 -41.80 -12.39 -8.14 -19.36 -13.71 -29.70 -23.69 -27.43 -26.77 -46.35 -62.19 -54.64 -102.60 -7.33 -35.35 -5.72 -72.17 4.69 -109.06 14.81 -52.44 50.02 -100.40 96.52 -131.72 5.21 -3.45 9.68 -6.53 10.05 -6.82 1.32 -1.25 -12.76 -26.11 -22.44 -39.68 -6.82 -9.53 -6.45 -9.39 -15.18 -6.97 -3.67 0.95 -6.38 1.17 -11.73 0.88 -12.47 -0.73 -22.22 -5.06 -30.80 -13.79 -5.57 -5.65 -8.87 -10.93 -11.59 -18.41 -1.69 -4.69 -1.91 -6.45 -1.91 -14.52 -0.07 -7.63 0.22 -10.05 1.61 -14.30 4.03 -12.25 12.17 -22 23.03 -27.80 8.29 -4.40 11.66 -5.21 22.22 -5.21 8.51 0 10.12 0.22 14.89 1.98 17.60 6.38 29.26 20.61 31.83 38.80 0.95 6.89 0 15.84 -2.35 22.08 l-1.39 3.74 3.96 4.69 c9.17 10.78 20.98 28.90 28.02 43.12 4.62 9.24 5.13 9.61 9.53 6.89 1.39 -0.88 3.59 -1.83 4.84 -2.20 1.32 -0.29 5.57 -1.76 9.53 -3.15 13.86 -5.06 35.35 -9.53 54.42 -11.44 11.66 -1.17 36.30 -1.03 48.40 0.37 20.98 2.35 43.27 7.63 60.65 14.45 5.21 1.98 9.61 3.52 9.68 3.37 0.15 -0.07 2.57 -4.69 5.43 -10.19 8.21 -15.99 18.26 -31.17 27.36 -41.73 l3.45 -4.03 -1.76 -5.21 c-7.48 -22.37 3.30 -47.45 24.79 -57.50 6.75 -3.15 12.47 -4.40 20.02 -4.40 17.89 0 33.30 9.53 41.58 25.82 4.11 7.99 5.21 13.71 4.77 23.54 -0.59 13.49 -4.47 22.52 -13.79 31.90 -11.73 11.73 -26.77 15.84 -43.34 11.73 -6.31 -1.54 -6.45 -1.54 -7.99 -0.15 -4.25 3.89 -26.11 39.24 -28.09 45.54 -0.37 1.17 1.17 2.57 9.02 7.77 36.67 24.42 62.93 54.12 81.85 92.55 7.41 15.03 10.34 22.44 14.96 37.77 17.89 59.26 11.37 122.92 -17.82 173.45 -27.65 47.89 -74.51 81.04 -137.22 97.10 -12.47 3.23 -17.31 4.11 -32.27 6.23 -22.22 3.08 -37.04 3.74 -61.61 2.57z m49.87 -14.96 c49.43 -5.65 89.91 -20.46 122.70 -44.88 9.83 -7.26 24.50 -21.34 32.05 -30.66 18.41 -22.74 30.36 -50.02 33.37 -75.91 1.32 -10.93 0.59 -31.98 -1.39 -41.88 -5.35 -26.77 -18.33 -52.14 -36.30 -70.92 -20.17 -21.05 -42.98 -34.84 -69.53 -41.95 -22 -5.79 -41.29 -5.94 -63.29 -0.37 -17.23 4.33 -31.61 11.07 -46.86 21.93 l-6.45 4.62 -8.95 -6.16 c-15.69 -11 -33.52 -18.63 -51.92 -22.37 -7.11 -1.47 -10.27 -1.69 -22.59 -1.61 -12.25 0.15 -15.69 0.44 -24.13 2.13 -12.39 2.42 -22.66 5.79 -33.44 10.93 -10.93 5.21 -15.77 8.14 -25.74 15.62 -39.46 29.34 -61.53 76.71 -57.57 123.28 1.69 19.44 5.57 33.52 14.37 51.34 17.45 35.42 45.32 62.49 83.61 81.26 30.73 14.96 64.39 23.62 104.51 26.70 12.32 0.95 45.47 0.29 57.57 -1.10z"
       id="path3" />
    <path
       d="M371.03 598.45 c-11.81 -1.32 -22.81 -5.28 -32.56 -11.59 -11.07 -7.11 -19.44 -16.79 -19.44 -22.37 0 -5.50 4.40 -10.05 9.75 -10.05 3.74 0 6.31 1.47 9.61 5.43 5.72 7.04 15.62 13.13 25.89 15.91 7.70 2.20 20.17 2.20 28.16 0.07 9.97 -2.64 19.80 -8.58 25.30 -15.33 3.45 -4.25 6.53 -6.09 10.05 -6.09 7.63 0 11.88 6.97 8.65 14.30 -1.98 4.55 -11.22 13.79 -18.55 18.55 -13.64 8.87 -30.80 12.91 -46.86 11.15z"
       id="path4" />
    <path
       d="M256.91 530.98 c-13.42 -2.71 -25.89 -12.25 -31.98 -24.57 -4.40 -8.87 -5.87 -15.84 -5.50 -25.96 0.44 -10.41 2.79 -18.19 7.92 -26.04 8.21 -12.54 23.47 -20.98 38.14 -20.98 20.10 0 38.06 14.45 43.71 35.20 1.76 6.53 1.83 20.61 0.07 27.14 -1.83 7.04 -6.53 15.91 -10.85 20.76 -10.41 11.66 -26.77 17.31 -41.51 14.45z m30.58 -61.24 c2.49 -1.25 4.11 -3.23 5.50 -6.45 1.03 -2.42 1.03 -2.93 -0.07 -5.72 -1.54 -3.74 -6.09 -7.26 -9.46 -7.26 -2.86 0 -6.75 2.49 -9.02 5.87 -3.15 4.69 -0.88 10.85 5.13 13.86 3.15 1.54 4.40 1.47 7.92 -0.29z"
       id="path5" />
    <path
       d="M484.78 531.27 c-14.23 -2.79 -27.43 -12.69 -33.52 -25.30 -4.18 -8.58 -5.65 -15.62 -5.21 -25.82 0.59 -13.71 5.21 -24.35 14.67 -33.66 8.87 -8.80 21.78 -13.64 33.74 -12.76 15.99 1.17 30.29 10.71 37.33 25.01 4.25 8.73 5.35 13.86 5.35 24.57 -0.07 7.77 -0.37 10.05 -1.91 14.81 -5.13 15.62 -15.40 26.18 -30.44 31.46 -4.18 1.47 -15.99 2.42 -20.02 1.69z m27.58 -60.43 c1.76 0 6.75 -5.06 7.63 -7.77 0.95 -2.93 0.51 -4.91 -1.98 -8.21 -4.40 -5.94 -11 -5.94 -15.91 -0.15 -3.59 4.25 -3.45 7.77 0.44 12.17 2.49 2.86 6.16 4.84 7.77 4.33 0.59 -0.22 1.47 -0.37 2.05 -0.37z"
       id="path6" />
  </g>
  <g
     fill="#fdfdfd"
     id="g8">
    <path
       d="M277.37 472.24 c-3.67 -1.83 -5.65 -4.40 -6.82 -8.87 -0.81 -2.86 -0.73 -3.81 0.37 -6.67 0.66 -1.91 2.42 -4.40 3.81 -5.57 10.56 -9.31 26.04 2.13 20.17 14.96 -1.61 3.52 -3.23 5.06 -6.89 6.60 -3.67 1.54 -6.89 1.39 -10.63 -0.44z"
       id="path7" />
    <path
       d="M505.31 472.97 c-2.35 -0.95 -5.72 -4.11 -7.04 -6.67 -0.59 -1.10 -1.03 -3.74 -1.03 -5.94 0 -10.78 12.83 -16.65 21.12 -9.68 4.11 3.45 5.65 9.75 3.74 14.81 -2.35 6.31 -10.56 9.97 -16.79 7.48z"
       id="path8" />
  </g>
</svg>
